<mxfile host="app.diagrams.net" agent="Mozilla/5.0 (Windows NT 10.0; Win64; x64) AppleWebKit/537.36 (KHTML, like Gecko) Chrome/128.0.0.0 Safari/537.36 Edg/128.0.0.0" version="24.7.8">
  <diagram name="Página-1" id="8naTSK9sl1-QqwAMvAuc">
    <mxGraphModel dx="3690" dy="1620" grid="0" gridSize="10" guides="0" tooltips="1" connect="1" arrows="1" fold="1" page="1" pageScale="1" pageWidth="827" pageHeight="1169" math="0" shadow="0">
      <root>
        <mxCell id="0" />
        <mxCell id="1" parent="0" />
        <UserObject label="" plantUmlData="{&quot;data&quot;:&quot;@startuml\nskinparam classAttributeIconSize 0\nskinparam classFontSize 14\nskinparam classFontColor Black\nskinparam shadowing true\nskinparam linetype ortho\nskinparam classBackgroundColor White\nskinparam classBorderColor Black\nskinparam classBorderThickness 1\nskinparam classHeaderBackgroundColor LightGray\nskinparam classHeaderFontColor White\nskinparam classAttributeFontSize 12\nskinparam classAttributeFontColor Black\nskinparam arrowColor Black\nskinparam arrowThickness 1\nskinparam arrowFontSize 13\nskinparam arrowFontColor Black\nskinparam nodesep 50\nskinparam ranksep 50\n\npackage Models {\n    class Usuario {\n        +id: int\n        +nome: string\n        +senha: string\n        +role: Role\n        +login(nome: String, senha: String): Usuario\n    }\n\n    class Aluno extends Usuario {\n        +matriculas: List&lt;Matricula&gt;\n        +matricularEmDisciplina(disciplina: Disciplina): bool\n        +cancelarMatricula(disciplina: Disciplina): bool\n        +consultarDisciplinasDisponiveis(todasDisciplinas: List&lt;Disciplina&gt;): List&lt;Disciplina&gt;\n        +receberNotificacao(mensagem: string): void\n        +jaMatriculado(disciplina: Disciplina): bool\n    }\n\n    class Professor extends Usuario {\n        +disciplinas: List&lt;Disciplina&gt;\n        +consultarAlunosMatriculados(disciplina: Disciplina): List&lt;Aluno&gt;\n    }\n\n    class Administrador extends Usuario {\n        +verificarAtivacaoturma(turmas: List&lt;Turma&gt;): void\n        +notificarAlunos(turma: Turma, status: string): void\n        +notificarSistema(turma: Turma, status: string): void\n    }\n\n    class Turma {\n        +status: StatusDisciplina\n        +professor: Professor\n        +vagasDisponiveis: int\n        +status: StatusDisciplina\n        +matriculados: List&lt;Aluno&gt;\n        +semestreAno: String\n        +verificarDisponibilidade(): bool\n        +adicionarAluno(aluno: Aluno): bool\n        +removerAluno(aluno: Aluno): bool\n        +criarStringData(): String\n    }\n\n    class Disciplina {\n        +turmas: List&lt;Turma&gt;\n        +codigo: string\n        +nome: string\n        +creditos: int\n        +tipo: TipoDisciplina\n    }\n\n    class Matricula {\n        +id: int\n        +aluno: Aluno\n        +turma: Turma\n        +dataMatricula: LocalDateTime\n    }\n\n    class SistemaCobranca {\n        +registrarCobranca(turma: Turma): void\n        +cancelarCobrancaParaTurma(turma: Turma): void\n    }\n\n    enum TipoDisciplina {\n        Obrigatoria\n        Optativa\n    }\n\n    enum StatusDisciplina {\n        Disponivel\n        Cancelada\n        Finalizada\n        Indisponivel\n    }\n\n    enum Role {\n        Aluno\n        Professor\n        Administrador\n    }\n}\n\npackage Dados {\n    interface Persistencia&lt;T&gt; {\n        +salvar(objeto: T): void\n        +carregar(id: Object): T\n        +atualizar(objeto: T): void\n        +remover(id: Object): void\n    }\n\n    class PersistenciaAluno implements Persistencia&lt;Aluno&gt; {\n        +salvar(aluno: Aluno): void\n        +carregar(id: int): Aluno\n        +atualizar(aluno: Aluno): void\n        +remover(id: int): void\n    }\n\n    class PersistenciaDisciplina implements Persistencia&lt;Disciplina&gt; {\n        +salvar(disciplina: Disciplina): void\n        +carregar(codigo: string): Disciplina\n        +atualizar(disciplina: Disciplina): void\n        +remover(codigo: string): void\n    }\n\n    class PersistenciaMatricula implements Persistencia&lt;Matricula&gt; {\n        +salvar(matricula: Matricula): void\n        +carregar(id: int): Matricula\n        +atualizar(matricula: Matricula): void\n        +remover(id: int): void\n    }\n\n    class PersistenciaUsuario implements Persistencia&lt;Usuario&gt; {\n        +salvar(usuario: Usuario): void\n        +carregar(nome: String, senha: String): Usuario\n        +atualizar(usuario: Usuario): void\n        +remover(id: int): void\n        +autenticar(nome: String, senha: String): Usuario\n    }\n}\n\n\nAluno \&quot;1\&quot; --&gt; \&quot;*\&quot; Matricula\nTurma \&quot;1\&quot; --&gt; \&quot;*\&quot; Matricula : Contém\nTurma \&quot;*\&quot; &lt;-- \&quot;1\&quot; Disciplina : Oferece\nTurma \&quot;1\&quot; --&gt; \&quot;1\&quot; Professor : Relacionado\nAdministrador --&gt; Turma\nMatricula --&gt; SistemaCobranca : Processa\n\n@enduml\n&quot;,&quot;format&quot;:&quot;svg&quot;}" id="1W-g6Xmh8BIowXXJBWe4-2">
          <mxCell style="shape=image;noLabel=1;verticalAlign=top;aspect=fixed;imageAspect=0;image=data:image/svg+xml,PD94bWwgdmVyc2lvbj0iMS4wIiBlbmNvZGluZz0idXMtYXNjaWkiIHN0YW5kYWxvbmU9Im5vIj8+PHN2ZyB4bWxucz0iaHR0cDovL3d3dy53My5vcmcvMjAwMC9zdmciIHhtbG5zOnhsaW5rPSJodHRwOi8vd3d3LnczLm9yZy8xOTk5L3hsaW5rIiBjb250ZW50U3R5bGVUeXBlPSJ0ZXh0L2NzcyIgaGVpZ2h0PSI4NTBweCIgcHJlc2VydmVBc3BlY3RSYXRpbz0ibm9uZSIgc3R5bGU9IndpZHRoOjIyMzlweDtoZWlnaHQ6ODUwcHg7YmFja2dyb3VuZDojRkZGRkZGOyIgdmVyc2lvbj0iMS4xIiB2aWV3Qm94PSIwIDAgMjIzOSA4NTAiIHdpZHRoPSIyMjM5cHgiIHpvb21BbmRQYW49Im1hZ25pZnkiPjxkZWZzPjxmaWx0ZXIgaGVpZ2h0PSIzMDAlIiBpZD0iZjFleXY0bnJ1aWM3amYiIHdpZHRoPSIzMDAlIiB4PSItMSIgeT0iLTEiPjxmZUdhdXNzaWFuQmx1ciByZXN1bHQ9ImJsdXJPdXQiIHN0ZERldmlhdGlvbj0iMi4wIi8+PGZlQ29sb3JNYXRyaXggaW49ImJsdXJPdXQiIHJlc3VsdD0iYmx1ck91dDIiIHR5cGU9Im1hdHJpeCIgdmFsdWVzPSIwIDAgMCAwIDAgMCAwIDAgMCAwIDAgMCAwIDAgMCAwIDAgMCAuNCAwIi8+PGZlT2Zmc2V0IGR4PSI0LjAiIGR5PSI0LjAiIGluPSJibHVyT3V0MiIgcmVzdWx0PSJibHVyT3V0MyIvPjxmZUJsZW5kIGluPSJTb3VyY2VHcmFwaGljIiBpbjI9ImJsdXJPdXQzIiBtb2RlPSJub3JtYWwiLz48L2ZpbHRlcj48L2RlZnM+PGc+PCEtLWNsdXN0ZXIgTW9kZWxzLS0+PGcgaWQ9ImNsdXN0ZXJfTW9kZWxzIj48cGF0aCBkPSJNOC41LDYgTDUxLjUsNiBBMy43NSwzLjc1IDAgMCAxIDU0LDguNSBMNjEsMjYuOTg0NCBMOTUxLjUsMjYuOTg0NCBBMi41LDIuNSAwIDAgMSA5NTQsMjkuNDg0NCBMOTU0LDgzOC41IEEyLjUsMi41IDAgMCAxIDk1MS41LDg0MSBMOC41LDg0MSBBMi41LDIuNSAwIDAgMSA2LDgzOC41IEw2LDguNSBBMi41LDIuNSAwIDAgMSA4LjUsNiAiIGZpbGw9Im5vbmUiIGZpbHRlcj0idXJsKCNmMWV5djRucnVpYzdqZikiIHN0eWxlPSJzdHJva2U6IzAwMDAwMDtzdHJva2Utd2lkdGg6MS41OyIvPjxsaW5lIHN0eWxlPSJzdHJva2U6IzAwMDAwMDtzdHJva2Utd2lkdGg6MS41OyIgeDE9IjYiIHgyPSI2MSIgeTE9IjI2Ljk4NDQiIHkyPSIyNi45ODQ0Ii8+PHRleHQgZmlsbD0iIzAwMDAwMCIgZm9udC1mYW1pbHk9InNhbnMtc2VyaWYiIGZvbnQtc2l6ZT0iMTQiIGZvbnQtd2VpZ2h0PSJib2xkIiBsZW5ndGhBZGp1c3Q9InNwYWNpbmciIHRleHRMZW5ndGg9IjQyIiB4PSIxMCIgeT0iMjEuMjM0NCI+TW9kZWxzPC90ZXh0PjwvZz48IS0tY2x1c3RlciBEYWRvcy0tPjxnIGlkPSJjbHVzdGVyX0RhZG9zIj48cGF0aCBkPSJNOTgwLjUsMTIuNSBMMTAxNi41LDEyLjUgQTMuNzUsMy43NSAwIDAgMSAxMDE5LDE1IEwxMDI2LDMzLjQ4NDQgTDIyMjcuNSwzMy40ODQ0IEEyLjUsMi41IDAgMCAxIDIyMzAsMzUuOTg0NCBMMjIzMCwzMjYuNSBBMi41LDIuNSAwIDAgMSAyMjI3LjUsMzI5IEw5ODAuNSwzMjkgQTIuNSwyLjUgMCAwIDEgOTc4LDMyNi41IEw5NzgsMTUgQTIuNSwyLjUgMCAwIDEgOTgwLjUsMTIuNSAiIGZpbGw9Im5vbmUiIGZpbHRlcj0idXJsKCNmMWV5djRucnVpYzdqZikiIHN0eWxlPSJzdHJva2U6IzAwMDAwMDtzdHJva2Utd2lkdGg6MS41OyIvPjxsaW5lIHN0eWxlPSJzdHJva2U6IzAwMDAwMDtzdHJva2Utd2lkdGg6MS41OyIgeDE9Ijk3OCIgeDI9IjEwMjYiIHkxPSIzMy40ODQ0IiB5Mj0iMzMuNDg0NCIvPjx0ZXh0IGZpbGw9IiMwMDAwMDAiIGZvbnQtZmFtaWx5PSJzYW5zLXNlcmlmIiBmb250LXNpemU9IjE0IiBmb250LXdlaWdodD0iYm9sZCIgbGVuZ3RoQWRqdXN0PSJzcGFjaW5nIiB0ZXh0TGVuZ3RoPSIzNSIgeD0iOTgyIiB5PSIyNy43MzQ0Ij5EYWRvczwvdGV4dD48L2c+PCEtLWNsYXNzIFVzdWFyaW8tLT48ZyBpZD0iZWxlbV9Vc3VhcmlvIj48cmVjdCBjb2RlTGluZT0iMjEiIGZpbGw9IiNGRkZGRkYiIGZpbHRlcj0idXJsKCNmMWV5djRucnVpYzdqZikiIGhlaWdodD0iMTEyLjIxODgiIGlkPSJVc3VhcmlvIiByeD0iMi41IiByeT0iMi41IiBzdHlsZT0ic3Ryb2tlOiMwMDAwMDA7c3Ryb2tlLXdpZHRoOjEuMDsiIHdpZHRoPSIzMDEiIHg9IjEwMS41IiB5PSIzOSIvPjxyZWN0IGZpbGw9IiNEM0QzRDMiIGhlaWdodD0iMzIiIHJ4PSIyLjUiIHJ5PSIyLjUiIHN0eWxlPSJzdHJva2U6I0QzRDNEMztzdHJva2Utd2lkdGg6MS4wOyIgd2lkdGg9IjMwMSIgeD0iMTAxLjUiIHk9IjM5Ii8+PHJlY3QgZmlsbD0iI0QzRDNEMyIgaGVpZ2h0PSIyLjUiIHN0eWxlPSJzdHJva2U6I0QzRDNEMztzdHJva2Utd2lkdGg6MS4wOyIgd2lkdGg9IjMwMSIgeD0iMTAxLjUiIHk9IjY4LjUiLz48cmVjdCBjb2RlTGluZT0iMjEiIGZpbGw9Im5vbmUiIGhlaWdodD0iMTEyLjIxODgiIGlkPSJVc3VhcmlvIiByeD0iMi41IiByeT0iMi41IiBzdHlsZT0ic3Ryb2tlOiMwMDAwMDA7c3Ryb2tlLXdpZHRoOjEuMDsiIHdpZHRoPSIzMDEiIHg9IjEwMS41IiB5PSIzOSIvPjxlbGxpcHNlIGN4PSIyMjMuNzUiIGN5PSI1NSIgZmlsbD0iI0FERDFCMiIgcng9IjExIiByeT0iMTEiIHN0eWxlPSJzdHJva2U6IzE4MTgxODtzdHJva2Utd2lkdGg6MS4wOyIvPjxwYXRoIGQ9Ik0yMjEuMzc1LDU5LjI1IEwyMjEuMzc1LDYxIEwyMjYuMzEyNSw2MSBMMjI2LjMxMjUsNTkuMjUgTDIyMS4zNzUsNTkuMjUgWiBNMjIyLjA2MjUsNTkuOTM3NSBRMjIyLjA2MjUsNTkuOTM3NSAyMjIuMDYyNSw1MC43NSBMMjIwLjMxMjUsNTAuNzUgUTIyMC4zMTI1LDUwLjc1IDIyMC4zMTI1LDU5LjkzNzUgTDIyMi4wNjI1LDU5LjkzNzUgWiBNMjI1LjYyNSw1OS45Mzc1IEwyMjcuMzc1LDU5LjkzNzUgUTIyNy4zNzUsNTkuOTM3NSAyMjcuMzc1LDU3LjEyNSBMMjI1LjYyNSw1Ny4xMjUgUTIyNS42MjUsNTcuMTI1IDIyNS42MjUsNTkuOTM3NSBaIE0yMjUuNjI1LDUwLjc1IFEyMjUuNjI1LDUwLjc1IDIyNS42MjUsNTMuNTYyNSBMMjI3LjM3NSw1My41NjI1IFEyMjcuMzc1LDUzLjU2MjUgMjI3LjM3NSw1MC43NSBMMjI1LjYyNSw1MC43NSBaIE0yMjEuMzc1LDUxLjQzNzUgTDIyNi4zMTI1LDUxLjQzNzUgTDIyNi4zMTI1LDQ5LjY4NzUgTDIyMS4zNzUsNDkuNjg3NSBMMjIxLjM3NSw1MS40Mzc1IFogIiBmaWxsPSIjMDAwMDAwIi8+PHRleHQgZmlsbD0iIzAwMDAwMCIgZm9udC1mYW1pbHk9InNhbnMtc2VyaWYiIGZvbnQtc2l6ZT0iMTIiIGxlbmd0aEFkanVzdD0ic3BhY2luZyIgdGV4dExlbmd0aD0iNDgiIHg9IjI0NC4yNSIgeT0iNTkuOTIxOSI+VXN1YXJpbzwvdGV4dD48bGluZSBzdHlsZT0ic3Ryb2tlOiMwMDAwMDA7c3Ryb2tlLXdpZHRoOjEuMDsiIHgxPSIxMDIuNSIgeDI9IjQwMS41IiB5MT0iNzEiIHkyPSI3MSIvPjx0ZXh0IGZpbGw9IiMwMDAwMDAiIGZvbnQtZmFtaWx5PSJzYW5zLXNlcmlmIiBmb250LXNpemU9IjEyIiBsZW5ndGhBZGp1c3Q9InNwYWNpbmciIHRleHRMZW5ndGg9IjUwIiB4PSIxMDcuNSIgeT0iODYuMzQzOCI+K2lkOiBpbnQ8L3RleHQ+PHRleHQgZmlsbD0iIzAwMDAwMCIgZm9udC1mYW1pbHk9InNhbnMtc2VyaWYiIGZvbnQtc2l6ZT0iMTIiIGxlbmd0aEFkanVzdD0ic3BhY2luZyIgdGV4dExlbmd0aD0iODUiIHg9IjEwNy41IiB5PSI5OS4xODc1Ij4rbm9tZTogc3RyaW5nPC90ZXh0Pjx0ZXh0IGZpbGw9IiMwMDAwMDAiIGZvbnQtZmFtaWx5PSJzYW5zLXNlcmlmIiBmb250LXNpemU9IjEyIiBsZW5ndGhBZGp1c3Q9InNwYWNpbmciIHRleHRMZW5ndGg9IjkzIiB4PSIxMDcuNSIgeT0iMTEyLjAzMTMiPitzZW5oYTogc3RyaW5nPC90ZXh0Pjx0ZXh0IGZpbGw9IiMwMDAwMDAiIGZvbnQtZmFtaWx5PSJzYW5zLXNlcmlmIiBmb250LXNpemU9IjEyIiBsZW5ndGhBZGp1c3Q9InNwYWNpbmciIHRleHRMZW5ndGg9IjcyIiB4PSIxMDcuNSIgeT0iMTI0Ljg3NSI+K3JvbGU6IFJvbGU8L3RleHQ+PGxpbmUgc3R5bGU9InN0cm9rZTojMDAwMDAwO3N0cm9rZS13aWR0aDoxLjA7IiB4MT0iMTAyLjUiIHgyPSI0MDEuNSIgeTE9IjEzMC4zNzUiIHkyPSIxMzAuMzc1Ii8+PHRleHQgZmlsbD0iIzAwMDAwMCIgZm9udC1mYW1pbHk9InNhbnMtc2VyaWYiIGZvbnQtc2l6ZT0iMTIiIGxlbmd0aEFkanVzdD0ic3BhY2luZyIgdGV4dExlbmd0aD0iMjg5IiB4PSIxMDcuNSIgeT0iMTQ1LjcxODgiPitsb2dpbihub21lOiBTdHJpbmcsIHNlbmhhOiBTdHJpbmcpOiBVc3VhcmlvPC90ZXh0PjwvZz48IS0tY2xhc3MgQWx1bm8tLT48ZyBpZD0iZWxlbV9BbHVubyI+PHJlY3QgY29kZUxpbmU9IjI5IiBmaWxsPSIjRkZGRkZGIiBmaWx0ZXI9InVybCgjZjFleXY0bnJ1aWM3amYpIiBoZWlnaHQ9IjEyNS4wNjI1IiBpZD0iQWx1bm8iIHJ4PSIyLjUiIHJ5PSIyLjUiIHN0eWxlPSJzdHJva2U6IzAwMDAwMDtzdHJva2Utd2lkdGg6MS4wOyIgd2lkdGg9IjU3MCIgeD0iMzY4IiB5PSIzODguNSIvPjxyZWN0IGZpbGw9IiNEM0QzRDMiIGhlaWdodD0iMzIiIHJ4PSIyLjUiIHJ5PSIyLjUiIHN0eWxlPSJzdHJva2U6I0QzRDNEMztzdHJva2Utd2lkdGg6MS4wOyIgd2lkdGg9IjU3MCIgeD0iMzY4IiB5PSIzODguNSIvPjxyZWN0IGZpbGw9IiNEM0QzRDMiIGhlaWdodD0iMi41IiBzdHlsZT0ic3Ryb2tlOiNEM0QzRDM7c3Ryb2tlLXdpZHRoOjEuMDsiIHdpZHRoPSI1NzAiIHg9IjM2OCIgeT0iNDE4Ii8+PHJlY3QgY29kZUxpbmU9IjI5IiBmaWxsPSJub25lIiBoZWlnaHQ9IjEyNS4wNjI1IiBpZD0iQWx1bm8iIHJ4PSIyLjUiIHJ5PSIyLjUiIHN0eWxlPSJzdHJva2U6IzAwMDAwMDtzdHJva2Utd2lkdGg6MS4wOyIgd2lkdGg9IjU3MCIgeD0iMzY4IiB5PSIzODguNSIvPjxlbGxpcHNlIGN4PSI2MzEuNzUiIGN5PSI0MDQuNSIgZmlsbD0iI0FERDFCMiIgcng9IjExIiByeT0iMTEiIHN0eWxlPSJzdHJva2U6IzE4MTgxODtzdHJva2Utd2lkdGg6MS4wOyIvPjxwYXRoIGQ9Ik02MjkuMzc1LDQwOC43NSBMNjI5LjM3NSw0MTAuNSBMNjM0LjMxMjUsNDEwLjUgTDYzNC4zMTI1LDQwOC43NSBMNjI5LjM3NSw0MDguNzUgWiBNNjMwLjA2MjUsNDA5LjQzNzUgUTYzMC4wNjI1LDQwOS40Mzc1IDYzMC4wNjI1LDQwMC4yNSBMNjI4LjMxMjUsNDAwLjI1IFE2MjguMzEyNSw0MDAuMjUgNjI4LjMxMjUsNDA5LjQzNzUgTDYzMC4wNjI1LDQwOS40Mzc1IFogTTYzMy42MjUsNDA5LjQzNzUgTDYzNS4zNzUsNDA5LjQzNzUgUTYzNS4zNzUsNDA5LjQzNzUgNjM1LjM3NSw0MDYuNjI1IEw2MzMuNjI1LDQwNi42MjUgUTYzMy42MjUsNDA2LjYyNSA2MzMuNjI1LDQwOS40Mzc1IFogTTYzMy42MjUsNDAwLjI1IFE2MzMuNjI1LDQwMC4yNSA2MzMuNjI1LDQwMy4wNjI1IEw2MzUuMzc1LDQwMy4wNjI1IFE2MzUuMzc1LDQwMy4wNjI1IDYzNS4zNzUsNDAwLjI1IEw2MzMuNjI1LDQwMC4yNSBaIE02MjkuMzc1LDQwMC45Mzc1IEw2MzQuMzEyNSw0MDAuOTM3NSBMNjM0LjMxMjUsMzk5LjE4NzUgTDYyOS4zNzUsMzk5LjE4NzUgTDYyOS4zNzUsNDAwLjkzNzUgWiAiIGZpbGw9IiMwMDAwMDAiLz48dGV4dCBmaWxsPSIjMDAwMDAwIiBmb250LWZhbWlseT0ic2Fucy1zZXJpZiIgZm9udC1zaXplPSIxMiIgbGVuZ3RoQWRqdXN0PSJzcGFjaW5nIiB0ZXh0TGVuZ3RoPSIzNCIgeD0iNjUyLjI1IiB5PSI0MDkuNDIxOSI+QWx1bm88L3RleHQ+PGxpbmUgc3R5bGU9InN0cm9rZTojMDAwMDAwO3N0cm9rZS13aWR0aDoxLjA7IiB4MT0iMzY5IiB4Mj0iOTM3IiB5MT0iNDIwLjUiIHkyPSI0MjAuNSIvPjx0ZXh0IGZpbGw9IiMwMDAwMDAiIGZvbnQtZmFtaWx5PSJzYW5zLXNlcmlmIiBmb250LXNpemU9IjEyIiBsZW5ndGhBZGp1c3Q9InNwYWNpbmciIHRleHRMZW5ndGg9IjE3OSIgeD0iMzc0IiB5PSI0MzUuODQzOCI+K21hdHJpY3VsYXM6IExpc3QmbHQ7TWF0cmljdWxhJmd0OzwvdGV4dD48bGluZSBzdHlsZT0ic3Ryb2tlOiMwMDAwMDA7c3Ryb2tlLXdpZHRoOjEuMDsiIHgxPSIzNjkiIHgyPSI5MzciIHkxPSI0NDEuMzQzOCIgeTI9IjQ0MS4zNDM4Ii8+PHRleHQgZmlsbD0iIzAwMDAwMCIgZm9udC1mYW1pbHk9InNhbnMtc2VyaWYiIGZvbnQtc2l6ZT0iMTIiIGxlbmd0aEFkanVzdD0ic3BhY2luZyIgdGV4dExlbmd0aD0iMzQxIiB4PSIzNzQiIHk9IjQ1Ni42ODc1Ij4rbWF0cmljdWxhckVtRGlzY2lwbGluYShkaXNjaXBsaW5hOiBEaXNjaXBsaW5hKTogYm9vbDwvdGV4dD48dGV4dCBmaWxsPSIjMDAwMDAwIiBmb250LWZhbWlseT0ic2Fucy1zZXJpZiIgZm9udC1zaXplPSIxMiIgbGVuZ3RoQWRqdXN0PSJzcGFjaW5nIiB0ZXh0TGVuZ3RoPSIzMTEiIHg9IjM3NCIgeT0iNDY5LjUzMTMiPitjYW5jZWxhck1hdHJpY3VsYShkaXNjaXBsaW5hOiBEaXNjaXBsaW5hKTogYm9vbDwvdGV4dD48dGV4dCBmaWxsPSIjMDAwMDAwIiBmb250LWZhbWlseT0ic2Fucy1zZXJpZiIgZm9udC1zaXplPSIxMiIgbGVuZ3RoQWRqdXN0PSJzcGFjaW5nIiB0ZXh0TGVuZ3RoPSI1NTgiIHg9IjM3NCIgeT0iNDgyLjM3NSI+K2NvbnN1bHRhckRpc2NpcGxpbmFzRGlzcG9uaXZlaXModG9kYXNEaXNjaXBsaW5hczogTGlzdCZsdDtEaXNjaXBsaW5hJmd0Oyk6IExpc3QmbHQ7RGlzY2lwbGluYSZndDs8L3RleHQ+PHRleHQgZmlsbD0iIzAwMDAwMCIgZm9udC1mYW1pbHk9InNhbnMtc2VyaWYiIGZvbnQtc2l6ZT0iMTIiIGxlbmd0aEFkanVzdD0ic3BhY2luZyIgdGV4dExlbmd0aD0iMjgyIiB4PSIzNzQiIHk9IjQ5NS4yMTg4Ij4rcmVjZWJlck5vdGlmaWNhY2FvKG1lbnNhZ2VtOiBzdHJpbmcpOiB2b2lkPC90ZXh0Pjx0ZXh0IGZpbGw9IiMwMDAwMDAiIGZvbnQtZmFtaWx5PSJzYW5zLXNlcmlmIiBmb250LXNpemU9IjEyIiBsZW5ndGhBZGp1c3Q9InNwYWNpbmciIHRleHRMZW5ndGg9IjI4NSIgeD0iMzc0IiB5PSI1MDguMDYyNSI+K2phTWF0cmljdWxhZG8oZGlzY2lwbGluYTogRGlzY2lwbGluYSk6IGJvb2w8L3RleHQ+PC9nPjwhLS1jbGFzcyBQcm9mZXNzb3ItLT48ZyBpZD0iZWxlbV9Qcm9mZXNzb3IiPjxyZWN0IGNvZGVMaW5lPSIzOCIgZmlsbD0iI0ZGRkZGRiIgZmlsdGVyPSJ1cmwoI2YxZXl2NG5ydWljN2pmKSIgaGVpZ2h0PSI3My42ODc1IiBpZD0iUHJvZmVzc29yIiByeD0iMi41IiByeT0iMi41IiBzdHlsZT0ic3Ryb2tlOiMwMDAwMDA7c3Ryb2tlLXdpZHRoOjEuMDsiIHdpZHRoPSI0MzYiIHg9IjIyIiB5PSI2MDgiLz48cmVjdCBmaWxsPSIjRDNEM0QzIiBoZWlnaHQ9IjMyIiByeD0iMi41IiByeT0iMi41IiBzdHlsZT0ic3Ryb2tlOiNEM0QzRDM7c3Ryb2tlLXdpZHRoOjEuMDsiIHdpZHRoPSI0MzYiIHg9IjIyIiB5PSI2MDgiLz48cmVjdCBmaWxsPSIjRDNEM0QzIiBoZWlnaHQ9IjIuNSIgc3R5bGU9InN0cm9rZTojRDNEM0QzO3N0cm9rZS13aWR0aDoxLjA7IiB3aWR0aD0iNDM2IiB4PSIyMiIgeT0iNjM3LjUiLz48cmVjdCBjb2RlTGluZT0iMzgiIGZpbGw9Im5vbmUiIGhlaWdodD0iNzMuNjg3NSIgaWQ9IlByb2Zlc3NvciIgcng9IjIuNSIgcnk9IjIuNSIgc3R5bGU9InN0cm9rZTojMDAwMDAwO3N0cm9rZS13aWR0aDoxLjA7IiB3aWR0aD0iNDM2IiB4PSIyMiIgeT0iNjA4Ii8+PGVsbGlwc2UgY3g9IjIwNC43NSIgY3k9IjYyNCIgZmlsbD0iI0FERDFCMiIgcng9IjExIiByeT0iMTEiIHN0eWxlPSJzdHJva2U6IzE4MTgxODtzdHJva2Utd2lkdGg6MS4wOyIvPjxwYXRoIGQ9Ik0yMDIuMzc1LDYyOC4yNSBMMjAyLjM3NSw2MzAgTDIwNy4zMTI1LDYzMCBMMjA3LjMxMjUsNjI4LjI1IEwyMDIuMzc1LDYyOC4yNSBaIE0yMDMuMDYyNSw2MjguOTM3NSBRMjAzLjA2MjUsNjI4LjkzNzUgMjAzLjA2MjUsNjE5Ljc1IEwyMDEuMzEyNSw2MTkuNzUgUTIwMS4zMTI1LDYxOS43NSAyMDEuMzEyNSw2MjguOTM3NSBMMjAzLjA2MjUsNjI4LjkzNzUgWiBNMjA2LjYyNSw2MjguOTM3NSBMMjA4LjM3NSw2MjguOTM3NSBRMjA4LjM3NSw2MjguOTM3NSAyMDguMzc1LDYyNi4xMjUgTDIwNi42MjUsNjI2LjEyNSBRMjA2LjYyNSw2MjYuMTI1IDIwNi42MjUsNjI4LjkzNzUgWiBNMjA2LjYyNSw2MTkuNzUgUTIwNi42MjUsNjE5Ljc1IDIwNi42MjUsNjIyLjU2MjUgTDIwOC4zNzUsNjIyLjU2MjUgUTIwOC4zNzUsNjIyLjU2MjUgMjA4LjM3NSw2MTkuNzUgTDIwNi42MjUsNjE5Ljc1IFogTTIwMi4zNzUsNjIwLjQzNzUgTDIwNy4zMTI1LDYyMC40Mzc1IEwyMDcuMzEyNSw2MTguNjg3NSBMMjAyLjM3NSw2MTguNjg3NSBMMjAyLjM3NSw2MjAuNDM3NSBaICIgZmlsbD0iIzAwMDAwMCIvPjx0ZXh0IGZpbGw9IiMwMDAwMDAiIGZvbnQtZmFtaWx5PSJzYW5zLXNlcmlmIiBmb250LXNpemU9IjEyIiBsZW5ndGhBZGp1c3Q9InNwYWNpbmciIHRleHRMZW5ndGg9IjYyIiB4PSIyMjUuMjUiIHk9IjYyOC45MjE5Ij5Qcm9mZXNzb3I8L3RleHQ+PGxpbmUgc3R5bGU9InN0cm9rZTojMDAwMDAwO3N0cm9rZS13aWR0aDoxLjA7IiB4MT0iMjMiIHgyPSI0NTciIHkxPSI2NDAiIHkyPSI2NDAiLz48dGV4dCBmaWxsPSIjMDAwMDAwIiBmb250LWZhbWlseT0ic2Fucy1zZXJpZiIgZm9udC1zaXplPSIxMiIgbGVuZ3RoQWRqdXN0PSJzcGFjaW5nIiB0ZXh0TGVuZ3RoPSIxOTIiIHg9IjI4IiB5PSI2NTUuMzQzOCI+K2Rpc2NpcGxpbmFzOiBMaXN0Jmx0O0Rpc2NpcGxpbmEmZ3Q7PC90ZXh0PjxsaW5lIHN0eWxlPSJzdHJva2U6IzAwMDAwMDtzdHJva2Utd2lkdGg6MS4wOyIgeDE9IjIzIiB4Mj0iNDU3IiB5MT0iNjYwLjg0MzgiIHkyPSI2NjAuODQzOCIvPjx0ZXh0IGZpbGw9IiMwMDAwMDAiIGZvbnQtZmFtaWx5PSJzYW5zLXNlcmlmIiBmb250LXNpemU9IjEyIiBsZW5ndGhBZGp1c3Q9InNwYWNpbmciIHRleHRMZW5ndGg9IjQyNCIgeD0iMjgiIHk9IjY3Ni4xODc1Ij4rY29uc3VsdGFyQWx1bm9zTWF0cmljdWxhZG9zKGRpc2NpcGxpbmE6IERpc2NpcGxpbmEpOiBMaXN0Jmx0O0FsdW5vJmd0OzwvdGV4dD48L2c+PCEtLWNsYXNzIEFkbWluaXN0cmFkb3ItLT48ZyBpZD0iZWxlbV9BZG1pbmlzdHJhZG9yIj48cmVjdCBjb2RlTGluZT0iNDMiIGZpbGw9IiNGRkZGRkYiIGZpbHRlcj0idXJsKCNmMWV5djRucnVpYzdqZikiIGhlaWdodD0iODYuNTMxMyIgaWQ9IkFkbWluaXN0cmFkb3IiIHJ4PSIyLjUiIHJ5PSIyLjUiIHN0eWxlPSJzdHJva2U6IzAwMDAwMDtzdHJva2Utd2lkdGg6MS4wOyIgd2lkdGg9IjM1NSIgeD0iNzQuNSIgeT0iMjEzLjUiLz48cmVjdCBmaWxsPSIjRDNEM0QzIiBoZWlnaHQ9IjMyIiByeD0iMi41IiByeT0iMi41IiBzdHlsZT0ic3Ryb2tlOiNEM0QzRDM7c3Ryb2tlLXdpZHRoOjEuMDsiIHdpZHRoPSIzNTUiIHg9Ijc0LjUiIHk9IjIxMy41Ii8+PHJlY3QgZmlsbD0iI0QzRDNEMyIgaGVpZ2h0PSIyLjUiIHN0eWxlPSJzdHJva2U6I0QzRDNEMztzdHJva2Utd2lkdGg6MS4wOyIgd2lkdGg9IjM1NSIgeD0iNzQuNSIgeT0iMjQzIi8+PHJlY3QgY29kZUxpbmU9IjQzIiBmaWxsPSJub25lIiBoZWlnaHQ9Ijg2LjUzMTMiIGlkPSJBZG1pbmlzdHJhZG9yIiByeD0iMi41IiByeT0iMi41IiBzdHlsZT0ic3Ryb2tlOiMwMDAwMDA7c3Ryb2tlLXdpZHRoOjEuMDsiIHdpZHRoPSIzNTUiIHg9Ijc0LjUiIHk9IjIxMy41Ii8+PGVsbGlwc2UgY3g9IjIwNC4yNSIgY3k9IjIyOS41IiBmaWxsPSIjQUREMUIyIiByeD0iMTEiIHJ5PSIxMSIgc3R5bGU9InN0cm9rZTojMTgxODE4O3N0cm9rZS13aWR0aDoxLjA7Ii8+PHBhdGggZD0iTTIwMS44NzUsMjMzLjc1IEwyMDEuODc1LDIzNS41IEwyMDYuODEyNSwyMzUuNSBMMjA2LjgxMjUsMjMzLjc1IEwyMDEuODc1LDIzMy43NSBaIE0yMDIuNTYyNSwyMzQuNDM3NSBRMjAyLjU2MjUsMjM0LjQzNzUgMjAyLjU2MjUsMjI1LjI1IEwyMDAuODEyNSwyMjUuMjUgUTIwMC44MTI1LDIyNS4yNSAyMDAuODEyNSwyMzQuNDM3NSBMMjAyLjU2MjUsMjM0LjQzNzUgWiBNMjA2LjEyNSwyMzQuNDM3NSBMMjA3Ljg3NSwyMzQuNDM3NSBRMjA3Ljg3NSwyMzQuNDM3NSAyMDcuODc1LDIzMS42MjUgTDIwNi4xMjUsMjMxLjYyNSBRMjA2LjEyNSwyMzEuNjI1IDIwNi4xMjUsMjM0LjQzNzUgWiBNMjA2LjEyNSwyMjUuMjUgUTIwNi4xMjUsMjI1LjI1IDIwNi4xMjUsMjI4LjA2MjUgTDIwNy44NzUsMjI4LjA2MjUgUTIwNy44NzUsMjI4LjA2MjUgMjA3Ljg3NSwyMjUuMjUgTDIwNi4xMjUsMjI1LjI1IFogTTIwMS44NzUsMjI1LjkzNzUgTDIwNi44MTI1LDIyNS45Mzc1IEwyMDYuODEyNSwyMjQuMTg3NSBMMjAxLjg3NSwyMjQuMTg3NSBMMjAxLjg3NSwyMjUuOTM3NSBaICIgZmlsbD0iIzAwMDAwMCIvPjx0ZXh0IGZpbGw9IiMwMDAwMDAiIGZvbnQtZmFtaWx5PSJzYW5zLXNlcmlmIiBmb250LXNpemU9IjEyIiBsZW5ndGhBZGp1c3Q9InNwYWNpbmciIHRleHRMZW5ndGg9Ijg3IiB4PSIyMjQuNzUiIHk9IjIzNC40MjE5Ij5BZG1pbmlzdHJhZG9yPC90ZXh0PjxsaW5lIHN0eWxlPSJzdHJva2U6IzAwMDAwMDtzdHJva2Utd2lkdGg6MS4wOyIgeDE9Ijc1LjUiIHgyPSI0MjguNSIgeTE9IjI0NS41IiB5Mj0iMjQ1LjUiLz48bGluZSBzdHlsZT0ic3Ryb2tlOiMwMDAwMDA7c3Ryb2tlLXdpZHRoOjEuMDsiIHgxPSI3NS41IiB4Mj0iNDI4LjUiIHkxPSIyNTMuNSIgeTI9IjI1My41Ii8+PHRleHQgZmlsbD0iIzAwMDAwMCIgZm9udC1mYW1pbHk9InNhbnMtc2VyaWYiIGZvbnQtc2l6ZT0iMTIiIGxlbmd0aEFkanVzdD0ic3BhY2luZyIgdGV4dExlbmd0aD0iMzI0IiB4PSI4MC41IiB5PSIyNjguODQzOCI+K3ZlcmlmaWNhckF0aXZhY2FvdHVybWEodHVybWFzOiBMaXN0Jmx0O1R1cm1hJmd0Oyk6IHZvaWQ8L3RleHQ+PHRleHQgZmlsbD0iIzAwMDAwMCIgZm9udC1mYW1pbHk9InNhbnMtc2VyaWYiIGZvbnQtc2l6ZT0iMTIiIGxlbmd0aEFkanVzdD0ic3BhY2luZyIgdGV4dExlbmd0aD0iMzM4IiB4PSI4MC41IiB5PSIyODEuNjg3NSI+K25vdGlmaWNhckFsdW5vcyh0dXJtYTogVHVybWEsIHN0YXR1czogc3RyaW5nKTogdm9pZDwvdGV4dD48dGV4dCBmaWxsPSIjMDAwMDAwIiBmb250LWZhbWlseT0ic2Fucy1zZXJpZiIgZm9udC1zaXplPSIxMiIgbGVuZ3RoQWRqdXN0PSJzcGFjaW5nIiB0ZXh0TGVuZ3RoPSIzNDMiIHg9IjgwLjUiIHk9IjI5NC41MzEzIj4rbm90aWZpY2FyU2lzdGVtYSh0dXJtYTogVHVybWEsIHN0YXR1czogc3RyaW5nKTogdm9pZDwvdGV4dD48L2c+PCEtLWNsYXNzIFR1cm1hLS0+PGcgaWQ9ImVsZW1fVHVybWEiPjxyZWN0IGNvZGVMaW5lPSI0OSIgZmlsbD0iI0ZGRkZGRiIgZmlsdGVyPSJ1cmwoI2YxZXl2NG5ydWljN2pmKSIgaGVpZ2h0PSIxNzYuNDM3NSIgaWQ9IlR1cm1hIiByeD0iMi41IiByeT0iMi41IiBzdHlsZT0ic3Ryb2tlOiMwMDAwMDA7c3Ryb2tlLXdpZHRoOjEuMDsiIHdpZHRoPSIyNDMiIHg9Ijc0LjUiIHk9IjM2MyIvPjxyZWN0IGZpbGw9IiNEM0QzRDMiIGhlaWdodD0iMzIiIHJ4PSIyLjUiIHJ5PSIyLjUiIHN0eWxlPSJzdHJva2U6I0QzRDNEMztzdHJva2Utd2lkdGg6MS4wOyIgd2lkdGg9IjI0MyIgeD0iNzQuNSIgeT0iMzYzIi8+PHJlY3QgZmlsbD0iI0QzRDNEMyIgaGVpZ2h0PSIyLjUiIHN0eWxlPSJzdHJva2U6I0QzRDNEMztzdHJva2Utd2lkdGg6MS4wOyIgd2lkdGg9IjI0MyIgeD0iNzQuNSIgeT0iMzkyLjUiLz48cmVjdCBjb2RlTGluZT0iNDkiIGZpbGw9Im5vbmUiIGhlaWdodD0iMTc2LjQzNzUiIGlkPSJUdXJtYSIgcng9IjIuNSIgcnk9IjIuNSIgc3R5bGU9InN0cm9rZTojMDAwMDAwO3N0cm9rZS13aWR0aDoxLjA7IiB3aWR0aD0iMjQzIiB4PSI3NC41IiB5PSIzNjMiLz48ZWxsaXBzZSBjeD0iMTc1LjI1IiBjeT0iMzc5IiBmaWxsPSIjQUREMUIyIiByeD0iMTEiIHJ5PSIxMSIgc3R5bGU9InN0cm9rZTojMTgxODE4O3N0cm9rZS13aWR0aDoxLjA7Ii8+PHBhdGggZD0iTTE3Mi44NzUsMzgzLjI1IEwxNzIuODc1LDM4NSBMMTc3LjgxMjUsMzg1IEwxNzcuODEyNSwzODMuMjUgTDE3Mi44NzUsMzgzLjI1IFogTTE3My41NjI1LDM4My45Mzc1IFExNzMuNTYyNSwzODMuOTM3NSAxNzMuNTYyNSwzNzQuNzUgTDE3MS44MTI1LDM3NC43NSBRMTcxLjgxMjUsMzc0Ljc1IDE3MS44MTI1LDM4My45Mzc1IEwxNzMuNTYyNSwzODMuOTM3NSBaIE0xNzcuMTI1LDM4My45Mzc1IEwxNzguODc1LDM4My45Mzc1IFExNzguODc1LDM4My45Mzc1IDE3OC44NzUsMzgxLjEyNSBMMTc3LjEyNSwzODEuMTI1IFExNzcuMTI1LDM4MS4xMjUgMTc3LjEyNSwzODMuOTM3NSBaIE0xNzcuMTI1LDM3NC43NSBRMTc3LjEyNSwzNzQuNzUgMTc3LjEyNSwzNzcuNTYyNSBMMTc4Ljg3NSwzNzcuNTYyNSBRMTc4Ljg3NSwzNzcuNTYyNSAxNzguODc1LDM3NC43NSBMMTc3LjEyNSwzNzQuNzUgWiBNMTcyLjg3NSwzNzUuNDM3NSBMMTc3LjgxMjUsMzc1LjQzNzUgTDE3Ny44MTI1LDM3My42ODc1IEwxNzIuODc1LDM3My42ODc1IEwxNzIuODc1LDM3NS40Mzc1IFogIiBmaWxsPSIjMDAwMDAwIi8+PHRleHQgZmlsbD0iIzAwMDAwMCIgZm9udC1mYW1pbHk9InNhbnMtc2VyaWYiIGZvbnQtc2l6ZT0iMTIiIGxlbmd0aEFkanVzdD0ic3BhY2luZyIgdGV4dExlbmd0aD0iMzMiIHg9IjE5NS43NSIgeT0iMzgzLjkyMTkiPlR1cm1hPC90ZXh0PjxsaW5lIHN0eWxlPSJzdHJva2U6IzAwMDAwMDtzdHJva2Utd2lkdGg6MS4wOyIgeDE9Ijc1LjUiIHgyPSIzMTYuNSIgeTE9IjM5NSIgeTI9IjM5NSIvPjx0ZXh0IGZpbGw9IiMwMDAwMDAiIGZvbnQtZmFtaWx5PSJzYW5zLXNlcmlmIiBmb250LXNpemU9IjEyIiBsZW5ndGhBZGp1c3Q9InNwYWNpbmciIHRleHRMZW5ndGg9IjE2MyIgeD0iODAuNSIgeT0iNDEwLjM0MzgiPitzdGF0dXM6IFN0YXR1c0Rpc2NpcGxpbmE8L3RleHQ+PHRleHQgZmlsbD0iIzAwMDAwMCIgZm9udC1mYW1pbHk9InNhbnMtc2VyaWYiIGZvbnQtc2l6ZT0iMTIiIGxlbmd0aEFkanVzdD0ic3BhY2luZyIgdGV4dExlbmd0aD0iMTQyIiB4PSI4MC41IiB5PSI0MjMuMTg3NSI+K3Byb2Zlc3NvcjogUHJvZmVzc29yPC90ZXh0Pjx0ZXh0IGZpbGw9IiMwMDAwMDAiIGZvbnQtZmFtaWx5PSJzYW5zLXNlcmlmIiBmb250LXNpemU9IjEyIiBsZW5ndGhBZGp1c3Q9InNwYWNpbmciIHRleHRMZW5ndGg9IjE0NiIgeD0iODAuNSIgeT0iNDM2LjAzMTMiPit2YWdhc0Rpc3Bvbml2ZWlzOiBpbnQ8L3RleHQ+PHRleHQgZmlsbD0iIzAwMDAwMCIgZm9udC1mYW1pbHk9InNhbnMtc2VyaWYiIGZvbnQtc2l6ZT0iMTIiIGxlbmd0aEFkanVzdD0ic3BhY2luZyIgdGV4dExlbmd0aD0iMTYzIiB4PSI4MC41IiB5PSI0NDguODc1Ij4rc3RhdHVzOiBTdGF0dXNEaXNjaXBsaW5hPC90ZXh0Pjx0ZXh0IGZpbGw9IiMwMDAwMDAiIGZvbnQtZmFtaWx5PSJzYW5zLXNlcmlmIiBmb250LXNpemU9IjEyIiBsZW5ndGhBZGp1c3Q9InNwYWNpbmciIHRleHRMZW5ndGg9IjE2OCIgeD0iODAuNSIgeT0iNDYxLjcxODgiPittYXRyaWN1bGFkb3M6IExpc3QmbHQ7QWx1bm8mZ3Q7PC90ZXh0Pjx0ZXh0IGZpbGw9IiMwMDAwMDAiIGZvbnQtZmFtaWx5PSJzYW5zLXNlcmlmIiBmb250LXNpemU9IjEyIiBsZW5ndGhBZGp1c3Q9InNwYWNpbmciIHRleHRMZW5ndGg9IjEzMyIgeD0iODAuNSIgeT0iNDc0LjU2MjUiPitzZW1lc3RyZUFubzogU3RyaW5nPC90ZXh0PjxsaW5lIHN0eWxlPSJzdHJva2U6IzAwMDAwMDtzdHJva2Utd2lkdGg6MS4wOyIgeDE9Ijc1LjUiIHgyPSIzMTYuNSIgeTE9IjQ4MC4wNjI1IiB5Mj0iNDgwLjA2MjUiLz48dGV4dCBmaWxsPSIjMDAwMDAwIiBmb250LWZhbWlseT0ic2Fucy1zZXJpZiIgZm9udC1zaXplPSIxMiIgbGVuZ3RoQWRqdXN0PSJzcGFjaW5nIiB0ZXh0TGVuZ3RoPSIyMTYiIHg9IjgwLjUiIHk9IjQ5NS40MDYzIj4rdmVyaWZpY2FyRGlzcG9uaWJpbGlkYWRlKCk6IGJvb2w8L3RleHQ+PHRleHQgZmlsbD0iIzAwMDAwMCIgZm9udC1mYW1pbHk9InNhbnMtc2VyaWYiIGZvbnQtc2l6ZT0iMTIiIGxlbmd0aEFkanVzdD0ic3BhY2luZyIgdGV4dExlbmd0aD0iMjMxIiB4PSI4MC41IiB5PSI1MDguMjUiPithZGljaW9uYXJBbHVubyhhbHVubzogQWx1bm8pOiBib29sPC90ZXh0Pjx0ZXh0IGZpbGw9IiMwMDAwMDAiIGZvbnQtZmFtaWx5PSJzYW5zLXNlcmlmIiBmb250LXNpemU9IjEyIiBsZW5ndGhBZGp1c3Q9InNwYWNpbmciIHRleHRMZW5ndGg9IjIxOSIgeD0iODAuNSIgeT0iNTIxLjA5MzgiPityZW1vdmVyQWx1bm8oYWx1bm86IEFsdW5vKTogYm9vbDwvdGV4dD48dGV4dCBmaWxsPSIjMDAwMDAwIiBmb250LWZhbWlseT0ic2Fucy1zZXJpZiIgZm9udC1zaXplPSIxMiIgbGVuZ3RoQWRqdXN0PSJzcGFjaW5nIiB0ZXh0TGVuZ3RoPSIxNzAiIHg9IjgwLjUiIHk9IjUzMy45Mzc1Ij4rY3JpYXJTdHJpbmdEYXRhKCk6IFN0cmluZzwvdGV4dD48L2c+PCEtLWNsYXNzIERpc2NpcGxpbmEtLT48ZyBpZD0iZWxlbV9EaXNjaXBsaW5hIj48cmVjdCBjb2RlTGluZT0iNjIiIGZpbGw9IiNGRkZGRkYiIGZpbHRlcj0idXJsKCNmMWV5djRucnVpYzdqZikiIGhlaWdodD0iMTEyLjIxODgiIGlkPSJEaXNjaXBsaW5hIiByeD0iMi41IiByeT0iMi41IiBzdHlsZT0ic3Ryb2tlOiMwMDAwMDA7c3Ryb2tlLXdpZHRoOjEuMDsiIHdpZHRoPSIxNDciIHg9IjUwOC41IiB5PSI1ODkiLz48cmVjdCBmaWxsPSIjRDNEM0QzIiBoZWlnaHQ9IjMyIiByeD0iMi41IiByeT0iMi41IiBzdHlsZT0ic3Ryb2tlOiNEM0QzRDM7c3Ryb2tlLXdpZHRoOjEuMDsiIHdpZHRoPSIxNDciIHg9IjUwOC41IiB5PSI1ODkiLz48cmVjdCBmaWxsPSIjRDNEM0QzIiBoZWlnaHQ9IjIuNSIgc3R5bGU9InN0cm9rZTojRDNEM0QzO3N0cm9rZS13aWR0aDoxLjA7IiB3aWR0aD0iMTQ3IiB4PSI1MDguNSIgeT0iNjE4LjUiLz48cmVjdCBjb2RlTGluZT0iNjIiIGZpbGw9Im5vbmUiIGhlaWdodD0iMTEyLjIxODgiIGlkPSJEaXNjaXBsaW5hIiByeD0iMi41IiByeT0iMi41IiBzdHlsZT0ic3Ryb2tlOiMwMDAwMDA7c3Ryb2tlLXdpZHRoOjEuMDsiIHdpZHRoPSIxNDciIHg9IjUwOC41IiB5PSI1ODkiLz48ZWxsaXBzZSBjeD0iNTQ2IiBjeT0iNjA1IiBmaWxsPSIjQUREMUIyIiByeD0iMTEiIHJ5PSIxMSIgc3R5bGU9InN0cm9rZTojMTgxODE4O3N0cm9rZS13aWR0aDoxLjA7Ii8+PHBhdGggZD0iTTU0My42MjUsNjA5LjI1IEw1NDMuNjI1LDYxMSBMNTQ4LjU2MjUsNjExIEw1NDguNTYyNSw2MDkuMjUgTDU0My42MjUsNjA5LjI1IFogTTU0NC4zMTI1LDYwOS45Mzc1IFE1NDQuMzEyNSw2MDkuOTM3NSA1NDQuMzEyNSw2MDAuNzUgTDU0Mi41NjI1LDYwMC43NSBRNTQyLjU2MjUsNjAwLjc1IDU0Mi41NjI1LDYwOS45Mzc1IEw1NDQuMzEyNSw2MDkuOTM3NSBaIE01NDcuODc1LDYwOS45Mzc1IEw1NDkuNjI1LDYwOS45Mzc1IFE1NDkuNjI1LDYwOS45Mzc1IDU0OS42MjUsNjA3LjEyNSBMNTQ3Ljg3NSw2MDcuMTI1IFE1NDcuODc1LDYwNy4xMjUgNTQ3Ljg3NSw2MDkuOTM3NSBaIE01NDcuODc1LDYwMC43NSBRNTQ3Ljg3NSw2MDAuNzUgNTQ3Ljg3NSw2MDMuNTYyNSBMNTQ5LjYyNSw2MDMuNTYyNSBRNTQ5LjYyNSw2MDMuNTYyNSA1NDkuNjI1LDYwMC43NSBMNTQ3Ljg3NSw2MDAuNzUgWiBNNTQzLjYyNSw2MDEuNDM3NSBMNTQ4LjU2MjUsNjAxLjQzNzUgTDU0OC41NjI1LDU5OS42ODc1IEw1NDMuNjI1LDU5OS42ODc1IEw1NDMuNjI1LDYwMS40Mzc1IFogIiBmaWxsPSIjMDAwMDAwIi8+PHRleHQgZmlsbD0iIzAwMDAwMCIgZm9udC1mYW1pbHk9InNhbnMtc2VyaWYiIGZvbnQtc2l6ZT0iMTIiIGxlbmd0aEFkanVzdD0ic3BhY2luZyIgdGV4dExlbmd0aD0iNjUiIHg9IjU2NSIgeT0iNjA5LjkyMTkiPkRpc2NpcGxpbmE8L3RleHQ+PGxpbmUgc3R5bGU9InN0cm9rZTojMDAwMDAwO3N0cm9rZS13aWR0aDoxLjA7IiB4MT0iNTA5LjUiIHgyPSI2NTQuNSIgeTE9IjYyMSIgeTI9IjYyMSIvPjx0ZXh0IGZpbGw9IiMwMDAwMDAiIGZvbnQtZmFtaWx5PSJzYW5zLXNlcmlmIiBmb250LXNpemU9IjEyIiBsZW5ndGhBZGp1c3Q9InNwYWNpbmciIHRleHRMZW5ndGg9IjEyOCIgeD0iNTE0LjUiIHk9IjYzNi4zNDM4Ij4rdHVybWFzOiBMaXN0Jmx0O1R1cm1hJmd0OzwvdGV4dD48dGV4dCBmaWxsPSIjMDAwMDAwIiBmb250LWZhbWlseT0ic2Fucy1zZXJpZiIgZm9udC1zaXplPSIxMiIgbGVuZ3RoQWRqdXN0PSJzcGFjaW5nIiB0ZXh0TGVuZ3RoPSI5OCIgeD0iNTE0LjUiIHk9IjY0OS4xODc1Ij4rY29kaWdvOiBzdHJpbmc8L3RleHQ+PHRleHQgZmlsbD0iIzAwMDAwMCIgZm9udC1mYW1pbHk9InNhbnMtc2VyaWYiIGZvbnQtc2l6ZT0iMTIiIGxlbmd0aEFkanVzdD0ic3BhY2luZyIgdGV4dExlbmd0aD0iODUiIHg9IjUxNC41IiB5PSI2NjIuMDMxMyI+K25vbWU6IHN0cmluZzwvdGV4dD48dGV4dCBmaWxsPSIjMDAwMDAwIiBmb250LWZhbWlseT0ic2Fucy1zZXJpZiIgZm9udC1zaXplPSIxMiIgbGVuZ3RoQWRqdXN0PSJzcGFjaW5nIiB0ZXh0TGVuZ3RoPSI5MCIgeD0iNTE0LjUiIHk9IjY3NC44NzUiPitjcmVkaXRvczogaW50PC90ZXh0Pjx0ZXh0IGZpbGw9IiMwMDAwMDAiIGZvbnQtZmFtaWx5PSJzYW5zLXNlcmlmIiBmb250LXNpemU9IjEyIiBsZW5ndGhBZGp1c3Q9InNwYWNpbmciIHRleHRMZW5ndGg9IjEzNSIgeD0iNTE0LjUiIHk9IjY4Ny43MTg4Ij4rdGlwbzogVGlwb0Rpc2NpcGxpbmE8L3RleHQ+PGxpbmUgc3R5bGU9InN0cm9rZTojMDAwMDAwO3N0cm9rZS13aWR0aDoxLjA7IiB4MT0iNTA5LjUiIHgyPSI2NTQuNSIgeTE9IjY5My4yMTg4IiB5Mj0iNjkzLjIxODgiLz48L2c+PCEtLWNsYXNzIE1hdHJpY3VsYS0tPjxnIGlkPSJlbGVtX01hdHJpY3VsYSI+PHJlY3QgY29kZUxpbmU9IjcwIiBmaWxsPSIjRkZGRkZGIiBmaWx0ZXI9InVybCgjZjFleXY0bnJ1aWM3amYpIiBoZWlnaHQ9Ijk5LjM3NSIgaWQ9Ik1hdHJpY3VsYSIgcng9IjIuNSIgcnk9IjIuNSIgc3R5bGU9InN0cm9rZTojMDAwMDAwO3N0cm9rZS13aWR0aDoxLjA7IiB3aWR0aD0iMjAwIiB4PSI3MDYiIHk9IjU5NS41Ii8+PHJlY3QgZmlsbD0iI0QzRDNEMyIgaGVpZ2h0PSIzMiIgcng9IjIuNSIgcnk9IjIuNSIgc3R5bGU9InN0cm9rZTojRDNEM0QzO3N0cm9rZS13aWR0aDoxLjA7IiB3aWR0aD0iMjAwIiB4PSI3MDYiIHk9IjU5NS41Ii8+PHJlY3QgZmlsbD0iI0QzRDNEMyIgaGVpZ2h0PSIyLjUiIHN0eWxlPSJzdHJva2U6I0QzRDNEMztzdHJva2Utd2lkdGg6MS4wOyIgd2lkdGg9IjIwMCIgeD0iNzA2IiB5PSI2MjUiLz48cmVjdCBjb2RlTGluZT0iNzAiIGZpbGw9Im5vbmUiIGhlaWdodD0iOTkuMzc1IiBpZD0iTWF0cmljdWxhIiByeD0iMi41IiByeT0iMi41IiBzdHlsZT0ic3Ryb2tlOiMwMDAwMDA7c3Ryb2tlLXdpZHRoOjEuMDsiIHdpZHRoPSIyMDAiIHg9IjcwNiIgeT0iNTk1LjUiLz48ZWxsaXBzZSBjeD0iNzcyLjI1IiBjeT0iNjExLjUiIGZpbGw9IiNBREQxQjIiIHJ4PSIxMSIgcnk9IjExIiBzdHlsZT0ic3Ryb2tlOiMxODE4MTg7c3Ryb2tlLXdpZHRoOjEuMDsiLz48cGF0aCBkPSJNNzY5Ljg3NSw2MTUuNzUgTDc2OS44NzUsNjE3LjUgTDc3NC44MTI1LDYxNy41IEw3NzQuODEyNSw2MTUuNzUgTDc2OS44NzUsNjE1Ljc1IFogTTc3MC41NjI1LDYxNi40Mzc1IFE3NzAuNTYyNSw2MTYuNDM3NSA3NzAuNTYyNSw2MDcuMjUgTDc2OC44MTI1LDYwNy4yNSBRNzY4LjgxMjUsNjA3LjI1IDc2OC44MTI1LDYxNi40Mzc1IEw3NzAuNTYyNSw2MTYuNDM3NSBaIE03NzQuMTI1LDYxNi40Mzc1IEw3NzUuODc1LDYxNi40Mzc1IFE3NzUuODc1LDYxNi40Mzc1IDc3NS44NzUsNjEzLjYyNSBMNzc0LjEyNSw2MTMuNjI1IFE3NzQuMTI1LDYxMy42MjUgNzc0LjEyNSw2MTYuNDM3NSBaIE03NzQuMTI1LDYwNy4yNSBRNzc0LjEyNSw2MDcuMjUgNzc0LjEyNSw2MTAuMDYyNSBMNzc1Ljg3NSw2MTAuMDYyNSBRNzc1Ljg3NSw2MTAuMDYyNSA3NzUuODc1LDYwNy4yNSBMNzc0LjEyNSw2MDcuMjUgWiBNNzY5Ljg3NSw2MDcuOTM3NSBMNzc0LjgxMjUsNjA3LjkzNzUgTDc3NC44MTI1LDYwNi4xODc1IEw3NjkuODc1LDYwNi4xODc1IEw3NjkuODc1LDYwNy45Mzc1IFogIiBmaWxsPSIjMDAwMDAwIi8+PHRleHQgZmlsbD0iIzAwMDAwMCIgZm9udC1mYW1pbHk9InNhbnMtc2VyaWYiIGZvbnQtc2l6ZT0iMTIiIGxlbmd0aEFkanVzdD0ic3BhY2luZyIgdGV4dExlbmd0aD0iNTkiIHg9Ijc5Mi43NSIgeT0iNjE2LjQyMTkiPk1hdHJpY3VsYTwvdGV4dD48bGluZSBzdHlsZT0ic3Ryb2tlOiMwMDAwMDA7c3Ryb2tlLXdpZHRoOjEuMDsiIHgxPSI3MDciIHgyPSI5MDUiIHkxPSI2MjcuNSIgeTI9IjYyNy41Ii8+PHRleHQgZmlsbD0iIzAwMDAwMCIgZm9udC1mYW1pbHk9InNhbnMtc2VyaWYiIGZvbnQtc2l6ZT0iMTIiIGxlbmd0aEFkanVzdD0ic3BhY2luZyIgdGV4dExlbmd0aD0iNTAiIHg9IjcxMiIgeT0iNjQyLjg0MzgiPitpZDogaW50PC90ZXh0Pjx0ZXh0IGZpbGw9IiMwMDAwMDAiIGZvbnQtZmFtaWx5PSJzYW5zLXNlcmlmIiBmb250LXNpemU9IjEyIiBsZW5ndGhBZGp1c3Q9InNwYWNpbmciIHRleHRMZW5ndGg9Ijg2IiB4PSI3MTIiIHk9IjY1NS42ODc1Ij4rYWx1bm86IEFsdW5vPC90ZXh0Pjx0ZXh0IGZpbGw9IiMwMDAwMDAiIGZvbnQtZmFtaWx5PSJzYW5zLXNlcmlmIiBmb250LXNpemU9IjEyIiBsZW5ndGhBZGp1c3Q9InNwYWNpbmciIHRleHRMZW5ndGg9Ijg0IiB4PSI3MTIiIHk9IjY2OC41MzEzIj4rdHVybWE6IFR1cm1hPC90ZXh0Pjx0ZXh0IGZpbGw9IiMwMDAwMDAiIGZvbnQtZmFtaWx5PSJzYW5zLXNlcmlmIiBmb250LXNpemU9IjEyIiBsZW5ndGhBZGp1c3Q9InNwYWNpbmciIHRleHRMZW5ndGg9IjE4OCIgeD0iNzEyIiB5PSI2ODEuMzc1Ij4rZGF0YU1hdHJpY3VsYTogTG9jYWxEYXRlVGltZTwvdGV4dD48bGluZSBzdHlsZT0ic3Ryb2tlOiMwMDAwMDA7c3Ryb2tlLXdpZHRoOjEuMDsiIHgxPSI3MDciIHgyPSI5MDUiIHkxPSI2ODYuODc1IiB5Mj0iNjg2Ljg3NSIvPjwvZz48IS0tY2xhc3MgU2lzdGVtYUNvYnJhbmNhLS0+PGcgaWQ9ImVsZW1fU2lzdGVtYUNvYnJhbmNhIj48cmVjdCBjb2RlTGluZT0iNzciIGZpbGw9IiNGRkZGRkYiIGZpbHRlcj0idXJsKCNmMWV5djRucnVpYzdqZikiIGhlaWdodD0iNzMuNjg3NSIgaWQ9IlNpc3RlbWFDb2JyYW5jYSIgcng9IjIuNSIgcnk9IjIuNSIgc3R5bGU9InN0cm9rZTojMDAwMDAwO3N0cm9rZS13aWR0aDoxLjA7IiB3aWR0aD0iMzE2IiB4PSI2MjIiIHk9Ijc1MSIvPjxyZWN0IGZpbGw9IiNEM0QzRDMiIGhlaWdodD0iMzIiIHJ4PSIyLjUiIHJ5PSIyLjUiIHN0eWxlPSJzdHJva2U6I0QzRDNEMztzdHJva2Utd2lkdGg6MS4wOyIgd2lkdGg9IjMxNiIgeD0iNjIyIiB5PSI3NTEiLz48cmVjdCBmaWxsPSIjRDNEM0QzIiBoZWlnaHQ9IjIuNSIgc3R5bGU9InN0cm9rZTojRDNEM0QzO3N0cm9rZS13aWR0aDoxLjA7IiB3aWR0aD0iMzE2IiB4PSI2MjIiIHk9Ijc4MC41Ii8+PHJlY3QgY29kZUxpbmU9Ijc3IiBmaWxsPSJub25lIiBoZWlnaHQ9IjczLjY4NzUiIGlkPSJTaXN0ZW1hQ29icmFuY2EiIHJ4PSIyLjUiIHJ5PSIyLjUiIHN0eWxlPSJzdHJva2U6IzAwMDAwMDtzdHJva2Utd2lkdGg6MS4wOyIgd2lkdGg9IjMxNiIgeD0iNjIyIiB5PSI3NTEiLz48ZWxsaXBzZSBjeD0iNzI1LjI1IiBjeT0iNzY3IiBmaWxsPSIjQUREMUIyIiByeD0iMTEiIHJ5PSIxMSIgc3R5bGU9InN0cm9rZTojMTgxODE4O3N0cm9rZS13aWR0aDoxLjA7Ii8+PHBhdGggZD0iTTcyMi44NzUsNzcxLjI1IEw3MjIuODc1LDc3MyBMNzI3LjgxMjUsNzczIEw3MjcuODEyNSw3NzEuMjUgTDcyMi44NzUsNzcxLjI1IFogTTcyMy41NjI1LDc3MS45Mzc1IFE3MjMuNTYyNSw3NzEuOTM3NSA3MjMuNTYyNSw3NjIuNzUgTDcyMS44MTI1LDc2Mi43NSBRNzIxLjgxMjUsNzYyLjc1IDcyMS44MTI1LDc3MS45Mzc1IEw3MjMuNTYyNSw3NzEuOTM3NSBaIE03MjcuMTI1LDc3MS45Mzc1IEw3MjguODc1LDc3MS45Mzc1IFE3MjguODc1LDc3MS45Mzc1IDcyOC44NzUsNzY5LjEyNSBMNzI3LjEyNSw3NjkuMTI1IFE3MjcuMTI1LDc2OS4xMjUgNzI3LjEyNSw3NzEuOTM3NSBaIE03MjcuMTI1LDc2Mi43NSBRNzI3LjEyNSw3NjIuNzUgNzI3LjEyNSw3NjUuNTYyNSBMNzI4Ljg3NSw3NjUuNTYyNSBRNzI4Ljg3NSw3NjUuNTYyNSA3MjguODc1LDc2Mi43NSBMNzI3LjEyNSw3NjIuNzUgWiBNNzIyLjg3NSw3NjMuNDM3NSBMNzI3LjgxMjUsNzYzLjQzNzUgTDcyNy44MTI1LDc2MS42ODc1IEw3MjIuODc1LDc2MS42ODc1IEw3MjIuODc1LDc2My40Mzc1IFogIiBmaWxsPSIjMDAwMDAwIi8+PHRleHQgZmlsbD0iIzAwMDAwMCIgZm9udC1mYW1pbHk9InNhbnMtc2VyaWYiIGZvbnQtc2l6ZT0iMTIiIGxlbmd0aEFkanVzdD0ic3BhY2luZyIgdGV4dExlbmd0aD0iMTAxIiB4PSI3NDUuNzUiIHk9Ijc3MS45MjE5Ij5TaXN0ZW1hQ29icmFuY2E8L3RleHQ+PGxpbmUgc3R5bGU9InN0cm9rZTojMDAwMDAwO3N0cm9rZS13aWR0aDoxLjA7IiB4MT0iNjIzIiB4Mj0iOTM3IiB5MT0iNzgzIiB5Mj0iNzgzIi8+PGxpbmUgc3R5bGU9InN0cm9rZTojMDAwMDAwO3N0cm9rZS13aWR0aDoxLjA7IiB4MT0iNjIzIiB4Mj0iOTM3IiB5MT0iNzkxIiB5Mj0iNzkxIi8+PHRleHQgZmlsbD0iIzAwMDAwMCIgZm9udC1mYW1pbHk9InNhbnMtc2VyaWYiIGZvbnQtc2l6ZT0iMTIiIGxlbmd0aEFkanVzdD0ic3BhY2luZyIgdGV4dExlbmd0aD0iMjUxIiB4PSI2MjgiIHk9IjgwNi4zNDM4Ij4rcmVnaXN0cmFyQ29icmFuY2EodHVybWE6IFR1cm1hKTogdm9pZDwvdGV4dD48dGV4dCBmaWxsPSIjMDAwMDAwIiBmb250LWZhbWlseT0ic2Fucy1zZXJpZiIgZm9udC1zaXplPSIxMiIgbGVuZ3RoQWRqdXN0PSJzcGFjaW5nIiB0ZXh0TGVuZ3RoPSIzMDQiIHg9IjYyOCIgeT0iODE5LjE4NzUiPitjYW5jZWxhckNvYnJhbmNhUGFyYVR1cm1hKHR1cm1hOiBUdXJtYSk6IHZvaWQ8L3RleHQ+PC9nPjwhLS1jbGFzcyBUaXBvRGlzY2lwbGluYS0tPjxnIGlkPSJlbGVtX1RpcG9EaXNjaXBsaW5hIj48cmVjdCBjb2RlTGluZT0iODIiIGZpbGw9IiNGRkZGRkYiIGZpbHRlcj0idXJsKCNmMWV5djRucnVpYzdqZikiIGhlaWdodD0iNzMuNjg3NSIgaWQ9IlRpcG9EaXNjaXBsaW5hIiByeD0iMi41IiByeT0iMi41IiBzdHlsZT0ic3Ryb2tlOiMwMDAwMDA7c3Ryb2tlLXdpZHRoOjEuMDsiIHdpZHRoPSIxMjMiIHg9IjYwMC41IiB5PSI1OCIvPjxyZWN0IGZpbGw9IiNEM0QzRDMiIGhlaWdodD0iMzIiIHJ4PSIyLjUiIHJ5PSIyLjUiIHN0eWxlPSJzdHJva2U6I0QzRDNEMztzdHJva2Utd2lkdGg6MS4wOyIgd2lkdGg9IjEyMyIgeD0iNjAwLjUiIHk9IjU4Ii8+PHJlY3QgZmlsbD0iI0QzRDNEMyIgaGVpZ2h0PSIyLjUiIHN0eWxlPSJzdHJva2U6I0QzRDNEMztzdHJva2Utd2lkdGg6MS4wOyIgd2lkdGg9IjEyMyIgeD0iNjAwLjUiIHk9Ijg3LjUiLz48cmVjdCBjb2RlTGluZT0iODIiIGZpbGw9Im5vbmUiIGhlaWdodD0iNzMuNjg3NSIgaWQ9IlRpcG9EaXNjaXBsaW5hIiByeD0iMi41IiByeT0iMi41IiBzdHlsZT0ic3Ryb2tlOiMwMDAwMDA7c3Ryb2tlLXdpZHRoOjEuMDsiIHdpZHRoPSIxMjMiIHg9IjYwMC41IiB5PSI1OCIvPjxlbGxpcHNlIGN4PSI2MTUuNSIgY3k9Ijc0IiBmaWxsPSIjRUI5MzdGIiByeD0iMTEiIHJ5PSIxMSIgc3R5bGU9InN0cm9rZTojMTgxODE4O3N0cm9rZS13aWR0aDoxLjA7Ii8+PHBhdGggZD0iTTYxOS4xMjUsODAgTDYxOS4xMjUsNzguMjUgTDYxMy44MTI1LDc4LjI1IFE2MTMuODEyNSw3OC4yNSA2MTMuODEyNSw3NC42ODc1IEw2MTguMDYyNSw3NC42ODc1IEw2MTguMDYyNSw3Mi45Mzc1IEw2MTMuODEyNSw3Mi45Mzc1IEw2MTMuODEyNSw3MC40Mzc1IEw2MTkuMTI1LDcwLjQzNzUgTDYxOS4xMjUsNjguNjg3NSBMNjEyLjA2MjUsNjguNjg3NSBRNjEyLjA2MjUsNjguNjg3NSA2MTIuMDYyNSw4MCBMNjE5LjEyNSw4MCBaICIgZmlsbD0iIzAwMDAwMCIvPjx0ZXh0IGZpbGw9IiMwMDAwMDAiIGZvbnQtZmFtaWx5PSJzYW5zLXNlcmlmIiBmb250LXNpemU9IjEyIiBsZW5ndGhBZGp1c3Q9InNwYWNpbmciIHRleHRMZW5ndGg9IjkxIiB4PSI2MjkuNSIgeT0iNzguOTIxOSI+VGlwb0Rpc2NpcGxpbmE8L3RleHQ+PGxpbmUgc3R5bGU9InN0cm9rZTojMDAwMDAwO3N0cm9rZS13aWR0aDoxLjA7IiB4MT0iNjAxLjUiIHgyPSI3MjIuNSIgeTE9IjkwIiB5Mj0iOTAiLz48dGV4dCBmaWxsPSIjMDAwMDAwIiBmb250LWZhbWlseT0ic2Fucy1zZXJpZiIgZm9udC1zaXplPSIxMiIgbGVuZ3RoQWRqdXN0PSJzcGFjaW5nIiB0ZXh0TGVuZ3RoPSI3NCIgeD0iNjA2LjUiIHk9IjEwNS4zNDM4Ij5PYnJpZ2F0b3JpYTwvdGV4dD48dGV4dCBmaWxsPSIjMDAwMDAwIiBmb250LWZhbWlseT0ic2Fucy1zZXJpZiIgZm9udC1zaXplPSIxMiIgbGVuZ3RoQWRqdXN0PSJzcGFjaW5nIiB0ZXh0TGVuZ3RoPSI1MyIgeD0iNjA2LjUiIHk9IjExOC4xODc1Ij5PcHRhdGl2YTwvdGV4dD48bGluZSBzdHlsZT0ic3Ryb2tlOiMwMDAwMDA7c3Ryb2tlLXdpZHRoOjEuMDsiIHgxPSI2MDEuNSIgeDI9IjcyMi41IiB5MT0iMTIzLjY4NzUiIHkyPSIxMjMuNjg3NSIvPjwvZz48IS0tY2xhc3MgU3RhdHVzRGlzY2lwbGluYS0tPjxnIGlkPSJlbGVtX1N0YXR1c0Rpc2NpcGxpbmEiPjxyZWN0IGNvZGVMaW5lPSI4NyIgZmlsbD0iI0ZGRkZGRiIgZmlsdGVyPSJ1cmwoI2YxZXl2NG5ydWljN2pmKSIgaGVpZ2h0PSI5OS4zNzUiIGlkPSJTdGF0dXNEaXNjaXBsaW5hIiByeD0iMi41IiByeT0iMi41IiBzdHlsZT0ic3Ryb2tlOiMwMDAwMDA7c3Ryb2tlLXdpZHRoOjEuMDsiIHdpZHRoPSIxMzciIHg9Ijc3My41IiB5PSI0NS41Ii8+PHJlY3QgZmlsbD0iI0QzRDNEMyIgaGVpZ2h0PSIzMiIgcng9IjIuNSIgcnk9IjIuNSIgc3R5bGU9InN0cm9rZTojRDNEM0QzO3N0cm9rZS13aWR0aDoxLjA7IiB3aWR0aD0iMTM3IiB4PSI3NzMuNSIgeT0iNDUuNSIvPjxyZWN0IGZpbGw9IiNEM0QzRDMiIGhlaWdodD0iMi41IiBzdHlsZT0ic3Ryb2tlOiNEM0QzRDM7c3Ryb2tlLXdpZHRoOjEuMDsiIHdpZHRoPSIxMzciIHg9Ijc3My41IiB5PSI3NSIvPjxyZWN0IGNvZGVMaW5lPSI4NyIgZmlsbD0ibm9uZSIgaGVpZ2h0PSI5OS4zNzUiIGlkPSJTdGF0dXNEaXNjaXBsaW5hIiByeD0iMi41IiByeT0iMi41IiBzdHlsZT0ic3Ryb2tlOiMwMDAwMDA7c3Ryb2tlLXdpZHRoOjEuMDsiIHdpZHRoPSIxMzciIHg9Ijc3My41IiB5PSI0NS41Ii8+PGVsbGlwc2UgY3g9Ijc4OC41IiBjeT0iNjEuNSIgZmlsbD0iI0VCOTM3RiIgcng9IjExIiByeT0iMTEiIHN0eWxlPSJzdHJva2U6IzE4MTgxODtzdHJva2Utd2lkdGg6MS4wOyIvPjxwYXRoIGQ9Ik03OTIuMTI1LDY3LjUgTDc5Mi4xMjUsNjUuNzUgTDc4Ni44MTI1LDY1Ljc1IFE3ODYuODEyNSw2NS43NSA3ODYuODEyNSw2Mi4xODc1IEw3OTEuMDYyNSw2Mi4xODc1IEw3OTEuMDYyNSw2MC40Mzc1IEw3ODYuODEyNSw2MC40Mzc1IEw3ODYuODEyNSw1Ny45Mzc1IEw3OTIuMTI1LDU3LjkzNzUgTDc5Mi4xMjUsNTYuMTg3NSBMNzg1LjA2MjUsNTYuMTg3NSBRNzg1LjA2MjUsNTYuMTg3NSA3ODUuMDYyNSw2Ny41IEw3OTIuMTI1LDY3LjUgWiAiIGZpbGw9IiMwMDAwMDAiLz48dGV4dCBmaWxsPSIjMDAwMDAwIiBmb250LWZhbWlseT0ic2Fucy1zZXJpZiIgZm9udC1zaXplPSIxMiIgbGVuZ3RoQWRqdXN0PSJzcGFjaW5nIiB0ZXh0TGVuZ3RoPSIxMDUiIHg9IjgwMi41IiB5PSI2Ni40MjE5Ij5TdGF0dXNEaXNjaXBsaW5hPC90ZXh0PjxsaW5lIHN0eWxlPSJzdHJva2U6IzAwMDAwMDtzdHJva2Utd2lkdGg6MS4wOyIgeDE9Ijc3NC41IiB4Mj0iOTA5LjUiIHkxPSI3Ny41IiB5Mj0iNzcuNSIvPjx0ZXh0IGZpbGw9IiMwMDAwMDAiIGZvbnQtZmFtaWx5PSJzYW5zLXNlcmlmIiBmb250LXNpemU9IjEyIiBsZW5ndGhBZGp1c3Q9InNwYWNpbmciIHRleHRMZW5ndGg9IjY3IiB4PSI3NzkuNSIgeT0iOTIuODQzOCI+RGlzcG9uaXZlbDwvdGV4dD48dGV4dCBmaWxsPSIjMDAwMDAwIiBmb250LWZhbWlseT0ic2Fucy1zZXJpZiIgZm9udC1zaXplPSIxMiIgbGVuZ3RoQWRqdXN0PSJzcGFjaW5nIiB0ZXh0TGVuZ3RoPSI2MSIgeD0iNzc5LjUiIHk9IjEwNS42ODc1Ij5DYW5jZWxhZGE8L3RleHQ+PHRleHQgZmlsbD0iIzAwMDAwMCIgZm9udC1mYW1pbHk9InNhbnMtc2VyaWYiIGZvbnQtc2l6ZT0iMTIiIGxlbmd0aEFkanVzdD0ic3BhY2luZyIgdGV4dExlbmd0aD0iNjUiIHg9Ijc3OS41IiB5PSIxMTguNTMxMyI+RmluYWxpemFkYTwvdGV4dD48dGV4dCBmaWxsPSIjMDAwMDAwIiBmb250LWZhbWlseT0ic2Fucy1zZXJpZiIgZm9udC1zaXplPSIxMiIgbGVuZ3RoQWRqdXN0PSJzcGFjaW5nIiB0ZXh0TGVuZ3RoPSI4MCIgeD0iNzc5LjUiIHk9IjEzMS4zNzUiPkluZGlzcG9uaXZlbDwvdGV4dD48bGluZSBzdHlsZT0ic3Ryb2tlOiMwMDAwMDA7c3Ryb2tlLXdpZHRoOjEuMDsiIHgxPSI3NzQuNSIgeDI9IjkwOS41IiB5MT0iMTM2Ljg3NSIgeTI9IjEzNi44NzUiLz48L2c+PCEtLWNsYXNzIFJvbGUtLT48ZyBpZD0iZWxlbV9Sb2xlIj48cmVjdCBjb2RlTGluZT0iOTQiIGZpbGw9IiNGRkZGRkYiIGZpbHRlcj0idXJsKCNmMWV5djRucnVpYzdqZikiIGhlaWdodD0iODYuNTMxMyIgaWQ9IlJvbGUiIHJ4PSIyLjUiIHJ5PSIyLjUiIHN0eWxlPSJzdHJva2U6IzAwMDAwMDtzdHJva2Utd2lkdGg6MS4wOyIgd2lkdGg9Ijk5IiB4PSI2MTIuNSIgeT0iMjEzLjUiLz48cmVjdCBmaWxsPSIjRDNEM0QzIiBoZWlnaHQ9IjMyIiByeD0iMi41IiByeT0iMi41IiBzdHlsZT0ic3Ryb2tlOiNEM0QzRDM7c3Ryb2tlLXdpZHRoOjEuMDsiIHdpZHRoPSI5OSIgeD0iNjEyLjUiIHk9IjIxMy41Ii8+PHJlY3QgZmlsbD0iI0QzRDNEMyIgaGVpZ2h0PSIyLjUiIHN0eWxlPSJzdHJva2U6I0QzRDNEMztzdHJva2Utd2lkdGg6MS4wOyIgd2lkdGg9Ijk5IiB4PSI2MTIuNSIgeT0iMjQzIi8+PHJlY3QgY29kZUxpbmU9Ijk0IiBmaWxsPSJub25lIiBoZWlnaHQ9Ijg2LjUzMTMiIGlkPSJSb2xlIiByeD0iMi41IiByeT0iMi41IiBzdHlsZT0ic3Ryb2tlOiMwMDAwMDA7c3Ryb2tlLXdpZHRoOjEuMDsiIHdpZHRoPSI5OSIgeD0iNjEyLjUiIHk9IjIxMy41Ii8+PGVsbGlwc2UgY3g9IjY0NS41IiBjeT0iMjI5LjUiIGZpbGw9IiNFQjkzN0YiIHJ4PSIxMSIgcnk9IjExIiBzdHlsZT0ic3Ryb2tlOiMxODE4MTg7c3Ryb2tlLXdpZHRoOjEuMDsiLz48cGF0aCBkPSJNNjQ5LjEyNSwyMzUuNSBMNjQ5LjEyNSwyMzMuNzUgTDY0My44MTI1LDIzMy43NSBRNjQzLjgxMjUsMjMzLjc1IDY0My44MTI1LDIzMC4xODc1IEw2NDguMDYyNSwyMzAuMTg3NSBMNjQ4LjA2MjUsMjI4LjQzNzUgTDY0My44MTI1LDIyOC40Mzc1IEw2NDMuODEyNSwyMjUuOTM3NSBMNjQ5LjEyNSwyMjUuOTM3NSBMNjQ5LjEyNSwyMjQuMTg3NSBMNjQyLjA2MjUsMjI0LjE4NzUgUTY0Mi4wNjI1LDIyNC4xODc1IDY0Mi4wNjI1LDIzNS41IEw2NDkuMTI1LDIzNS41IFogIiBmaWxsPSIjMDAwMDAwIi8+PHRleHQgZmlsbD0iIzAwMDAwMCIgZm9udC1mYW1pbHk9InNhbnMtc2VyaWYiIGZvbnQtc2l6ZT0iMTIiIGxlbmd0aEFkanVzdD0ic3BhY2luZyIgdGV4dExlbmd0aD0iMjciIHg9IjY2My41IiB5PSIyMzQuNDIxOSI+Um9sZTwvdGV4dD48bGluZSBzdHlsZT0ic3Ryb2tlOiMwMDAwMDA7c3Ryb2tlLXdpZHRoOjEuMDsiIHgxPSI2MTMuNSIgeDI9IjcxMC41IiB5MT0iMjQ1LjUiIHkyPSIyNDUuNSIvPjx0ZXh0IGZpbGw9IiMwMDAwMDAiIGZvbnQtZmFtaWx5PSJzYW5zLXNlcmlmIiBmb250LXNpemU9IjEyIiBsZW5ndGhBZGp1c3Q9InNwYWNpbmciIHRleHRMZW5ndGg9IjM0IiB4PSI2MTguNSIgeT0iMjYwLjg0MzgiPkFsdW5vPC90ZXh0Pjx0ZXh0IGZpbGw9IiMwMDAwMDAiIGZvbnQtZmFtaWx5PSJzYW5zLXNlcmlmIiBmb250LXNpemU9IjEyIiBsZW5ndGhBZGp1c3Q9InNwYWNpbmciIHRleHRMZW5ndGg9IjYyIiB4PSI2MTguNSIgeT0iMjczLjY4NzUiPlByb2Zlc3NvcjwvdGV4dD48dGV4dCBmaWxsPSIjMDAwMDAwIiBmb250LWZhbWlseT0ic2Fucy1zZXJpZiIgZm9udC1zaXplPSIxMiIgbGVuZ3RoQWRqdXN0PSJzcGFjaW5nIiB0ZXh0TGVuZ3RoPSI4NyIgeD0iNjE4LjUiIHk9IjI4Ni41MzEzIj5BZG1pbmlzdHJhZG9yPC90ZXh0PjxsaW5lIHN0eWxlPSJzdHJva2U6IzAwMDAwMDtzdHJva2Utd2lkdGg6MS4wOyIgeDE9IjYxMy41IiB4Mj0iNzEwLjUiIHkxPSIyOTIuMDMxMyIgeTI9IjI5Mi4wMzEzIi8+PC9nPjwhLS1jbGFzcyBQZXJzaXN0ZW5jaWEtLT48ZyBpZD0iZWxlbV9QZXJzaXN0ZW5jaWEiPjxyZWN0IGNvZGVMaW5lPSIxMDIiIGZpbGw9IiNGRkZGRkYiIGZpbHRlcj0idXJsKCNmMWV5djRucnVpYzdqZikiIGhlaWdodD0iOTkuMzc1IiBpZD0iUGVyc2lzdGVuY2lhIiByeD0iMi41IiByeT0iMi41IiBzdHlsZT0ic3Ryb2tlOiMwMDAwMDA7c3Ryb2tlLXdpZHRoOjEuMDsiIHdpZHRoPSIxODYiIHg9IjE0NTEiIHk9IjQ1LjUiLz48cmVjdCBmaWxsPSIjRDNEM0QzIiBoZWlnaHQ9IjMyIiByeD0iMi41IiByeT0iMi41IiBzdHlsZT0ic3Ryb2tlOiNEM0QzRDM7c3Ryb2tlLXdpZHRoOjEuMDsiIHdpZHRoPSIxODYiIHg9IjE0NTEiIHk9IjQ1LjUiLz48cmVjdCBmaWxsPSIjRDNEM0QzIiBoZWlnaHQ9IjIuNSIgc3R5bGU9InN0cm9rZTojRDNEM0QzO3N0cm9rZS13aWR0aDoxLjA7IiB3aWR0aD0iMTg2IiB4PSIxNDUxIiB5PSI3NSIvPjxyZWN0IGNvZGVMaW5lPSIxMDIiIGZpbGw9Im5vbmUiIGhlaWdodD0iOTkuMzc1IiBpZD0iUGVyc2lzdGVuY2lhIiByeD0iMi41IiByeT0iMi41IiBzdHlsZT0ic3Ryb2tlOiMwMDAwMDA7c3Ryb2tlLXdpZHRoOjEuMDsiIHdpZHRoPSIxODYiIHg9IjE0NTEiIHk9IjQ1LjUiLz48ZWxsaXBzZSBjeD0iMTQ5NC44IiBjeT0iNjEuNSIgZmlsbD0iI0I0QTdFNSIgcng9IjExIiByeT0iMTEiIHN0eWxlPSJzdHJva2U6IzE4MTgxODtzdHJva2Utd2lkdGg6MS4wOyIvPjxwYXRoIGQ9Ik0xNDk3LjkyNSw2Ny41IEwxNDk3LjkyNSw2NS43NSBMMTQ5NS44LDY1Ljc1IFExNDk1LjgsNjUuNzUgMTQ5NS44LDU3LjkzNzUgTDE0OTcuOTI1LDU3LjkzNzUgTDE0OTcuOTI1LDU2LjE4NzUgTDE0OTEuOTI1LDU2LjE4NzUgTDE0OTEuOTI1LDU3LjkzNzUgTDE0OTQuMDUsNTcuOTM3NSBRMTQ5NC4wNSw1Ny45Mzc1IDE0OTQuMDUsNjUuNzUgTDE0OTEuOTI1LDY1Ljc1IEwxNDkxLjkyNSw2Ny41IEwxNDk3LjkyNSw2Ny41IFogIiBmaWxsPSIjMDAwMDAwIi8+PHRleHQgZmlsbD0iIzAwMDAwMCIgZm9udC1mYW1pbHk9InNhbnMtc2VyaWYiIGZvbnQtc2l6ZT0iMTIiIGZvbnQtc3R5bGU9Iml0YWxpYyIgbGVuZ3RoQWRqdXN0PSJzcGFjaW5nIiB0ZXh0TGVuZ3RoPSI4MCIgeD0iMTUxNS4yIiB5PSI2Ni40MjE5Ij5QZXJzaXN0ZW5jaWE8L3RleHQ+PHJlY3QgZmlsbD0iI0ZGRkZGRiIgaGVpZ2h0PSIxNC44NDM4IiBzdHlsZT0ic3Ryb2tlOiMwMDAwMDA7c3Ryb2tlLXdpZHRoOjEuMDtzdHJva2UtZGFzaGFycmF5OjIuMCwyLjA7IiB3aWR0aD0iOCIgeD0iMTYzMiIgeT0iNDIuNSIvPjx0ZXh0IGZpbGw9IiMwMDAwMDAiIGZvbnQtZmFtaWx5PSJzYW5zLXNlcmlmIiBmb250LXNpemU9IjEyIiBmb250LXN0eWxlPSJpdGFsaWMiIGxlbmd0aEFkanVzdD0ic3BhY2luZyIgdGV4dExlbmd0aD0iNiIgeD0iMTYzMyIgeT0iNTQuODQzOCI+VDwvdGV4dD48bGluZSBzdHlsZT0ic3Ryb2tlOiMwMDAwMDA7c3Ryb2tlLXdpZHRoOjEuMDsiIHgxPSIxNDUyIiB4Mj0iMTYzNiIgeTE9Ijc3LjUiIHkyPSI3Ny41Ii8+PGxpbmUgc3R5bGU9InN0cm9rZTojMDAwMDAwO3N0cm9rZS13aWR0aDoxLjA7IiB4MT0iMTQ1MiIgeDI9IjE2MzYiIHkxPSI4NS41IiB5Mj0iODUuNSIvPjx0ZXh0IGZpbGw9IiMwMDAwMDAiIGZvbnQtZmFtaWx5PSJzYW5zLXNlcmlmIiBmb250LXNpemU9IjEyIiBsZW5ndGhBZGp1c3Q9InNwYWNpbmciIHRleHRMZW5ndGg9IjE1NiIgeD0iMTQ1NyIgeT0iMTAwLjg0MzgiPitzYWx2YXIob2JqZXRvOiBUKTogdm9pZDwvdGV4dD48dGV4dCBmaWxsPSIjMDAwMDAwIiBmb250LWZhbWlseT0ic2Fucy1zZXJpZiIgZm9udC1zaXplPSIxMiIgbGVuZ3RoQWRqdXN0PSJzcGFjaW5nIiB0ZXh0TGVuZ3RoPSIxNTUiIHg9IjE0NTciIHk9IjExMy42ODc1Ij4rY2FycmVnYXIoaWQ6IE9iamVjdCk6IFQ8L3RleHQ+PHRleHQgZmlsbD0iIzAwMDAwMCIgZm9udC1mYW1pbHk9InNhbnMtc2VyaWYiIGZvbnQtc2l6ZT0iMTIiIGxlbmd0aEFkanVzdD0ic3BhY2luZyIgdGV4dExlbmd0aD0iMTc0IiB4PSIxNDU3IiB5PSIxMjYuNTMxMyI+K2F0dWFsaXphcihvYmpldG86IFQpOiB2b2lkPC90ZXh0Pjx0ZXh0IGZpbGw9IiMwMDAwMDAiIGZvbnQtZmFtaWx5PSJzYW5zLXNlcmlmIiBmb250LXNpemU9IjEyIiBsZW5ndGhBZGp1c3Q9InNwYWNpbmciIHRleHRMZW5ndGg9IjE2OSIgeD0iMTQ1NyIgeT0iMTM5LjM3NSI+K3JlbW92ZXIoaWQ6IE9iamVjdCk6IHZvaWQ8L3RleHQ+PC9nPjwhLS1jbGFzcyBQZXJzaXN0ZW5jaWFBbHVuby0tPjxnIGlkPSJlbGVtX1BlcnNpc3RlbmNpYUFsdW5vIj48cmVjdCBjb2RlTGluZT0iMTA5IiBmaWxsPSIjRkZGRkZGIiBmaWx0ZXI9InVybCgjZjFleXY0bnJ1aWM3amYpIiBoZWlnaHQ9Ijk5LjM3NSIgaWQ9IlBlcnNpc3RlbmNpYUFsdW5vIiByeD0iMi41IiByeT0iMi41IiBzdHlsZT0ic3Ryb2tlOiMwMDAwMDA7c3Ryb2tlLXdpZHRoOjEuMDsiIHdpZHRoPSIyMDgiIHg9Ijk5NCIgeT0iMjA3LjUiLz48cmVjdCBmaWxsPSIjRDNEM0QzIiBoZWlnaHQ9IjMyIiByeD0iMi41IiByeT0iMi41IiBzdHlsZT0ic3Ryb2tlOiNEM0QzRDM7c3Ryb2tlLXdpZHRoOjEuMDsiIHdpZHRoPSIyMDgiIHg9Ijk5NCIgeT0iMjA3LjUiLz48cmVjdCBmaWxsPSIjRDNEM0QzIiBoZWlnaHQ9IjIuNSIgc3R5bGU9InN0cm9rZTojRDNEM0QzO3N0cm9rZS13aWR0aDoxLjA7IiB3aWR0aD0iMjA4IiB4PSI5OTQiIHk9IjIzNyIvPjxyZWN0IGNvZGVMaW5lPSIxMDkiIGZpbGw9Im5vbmUiIGhlaWdodD0iOTkuMzc1IiBpZD0iUGVyc2lzdGVuY2lhQWx1bm8iIHJ4PSIyLjUiIHJ5PSIyLjUiIHN0eWxlPSJzdHJva2U6IzAwMDAwMDtzdHJva2Utd2lkdGg6MS4wOyIgd2lkdGg9IjIwOCIgeD0iOTk0IiB5PSIyMDcuNSIvPjxlbGxpcHNlIGN4PSIxMDM2LjkiIGN5PSIyMjMuNSIgZmlsbD0iI0FERDFCMiIgcng9IjExIiByeT0iMTEiIHN0eWxlPSJzdHJva2U6IzE4MTgxODtzdHJva2Utd2lkdGg6MS4wOyIvPjxwYXRoIGQ9Ik0xMDM0LjUyNSwyMjcuNzUgTDEwMzQuNTI1LDIyOS41IEwxMDM5LjQ2MjUsMjI5LjUgTDEwMzkuNDYyNSwyMjcuNzUgTDEwMzQuNTI1LDIyNy43NSBaIE0xMDM1LjIxMjUsMjI4LjQzNzUgUTEwMzUuMjEyNSwyMjguNDM3NSAxMDM1LjIxMjUsMjE5LjI1IEwxMDMzLjQ2MjUsMjE5LjI1IFExMDMzLjQ2MjUsMjE5LjI1IDEwMzMuNDYyNSwyMjguNDM3NSBMMTAzNS4yMTI1LDIyOC40Mzc1IFogTTEwMzguNzc1LDIyOC40Mzc1IEwxMDQwLjUyNSwyMjguNDM3NSBRMTA0MC41MjUsMjI4LjQzNzUgMTA0MC41MjUsMjI1LjYyNSBMMTAzOC43NzUsMjI1LjYyNSBRMTAzOC43NzUsMjI1LjYyNSAxMDM4Ljc3NSwyMjguNDM3NSBaIE0xMDM4Ljc3NSwyMTkuMjUgUTEwMzguNzc1LDIxOS4yNSAxMDM4Ljc3NSwyMjIuMDYyNSBMMTA0MC41MjUsMjIyLjA2MjUgUTEwNDAuNTI1LDIyMi4wNjI1IDEwNDAuNTI1LDIxOS4yNSBMMTAzOC43NzUsMjE5LjI1IFogTTEwMzQuNTI1LDIxOS45Mzc1IEwxMDM5LjQ2MjUsMjE5LjkzNzUgTDEwMzkuNDYyNSwyMTguMTg3NSBMMTAzNC41MjUsMjE4LjE4NzUgTDEwMzQuNTI1LDIxOS45Mzc1IFogIiBmaWxsPSIjMDAwMDAwIi8+PHRleHQgZmlsbD0iIzAwMDAwMCIgZm9udC1mYW1pbHk9InNhbnMtc2VyaWYiIGZvbnQtc2l6ZT0iMTIiIGxlbmd0aEFkanVzdD0ic3BhY2luZyIgdGV4dExlbmd0aD0iMTE0IiB4PSIxMDU3LjEiIHk9IjIyOC40MjE5Ij5QZXJzaXN0ZW5jaWFBbHVubzwvdGV4dD48bGluZSBzdHlsZT0ic3Ryb2tlOiMwMDAwMDA7c3Ryb2tlLXdpZHRoOjEuMDsiIHgxPSI5OTUiIHgyPSIxMjAxIiB5MT0iMjM5LjUiIHkyPSIyMzkuNSIvPjxsaW5lIHN0eWxlPSJzdHJva2U6IzAwMDAwMDtzdHJva2Utd2lkdGg6MS4wOyIgeDE9Ijk5NSIgeDI9IjEyMDEiIHkxPSIyNDcuNSIgeTI9IjI0Ny41Ii8+PHRleHQgZmlsbD0iIzAwMDAwMCIgZm9udC1mYW1pbHk9InNhbnMtc2VyaWYiIGZvbnQtc2l6ZT0iMTIiIGxlbmd0aEFkanVzdD0ic3BhY2luZyIgdGV4dExlbmd0aD0iMTc4IiB4PSIxMDAwIiB5PSIyNjIuODQzOCI+K3NhbHZhcihhbHVubzogQWx1bm8pOiB2b2lkPC90ZXh0Pjx0ZXh0IGZpbGw9IiMwMDAwMDAiIGZvbnQtZmFtaWx5PSJzYW5zLXNlcmlmIiBmb250LXNpemU9IjEyIiBsZW5ndGhBZGp1c3Q9InNwYWNpbmciIHRleHRMZW5ndGg9IjE2MyIgeD0iMTAwMCIgeT0iMjc1LjY4NzUiPitjYXJyZWdhcihpZDogaW50KTogQWx1bm88L3RleHQ+PHRleHQgZmlsbD0iIzAwMDAwMCIgZm9udC1mYW1pbHk9InNhbnMtc2VyaWYiIGZvbnQtc2l6ZT0iMTIiIGxlbmd0aEFkanVzdD0ic3BhY2luZyIgdGV4dExlbmd0aD0iMTk2IiB4PSIxMDAwIiB5PSIyODguNTMxMyI+K2F0dWFsaXphcihhbHVubzogQWx1bm8pOiB2b2lkPC90ZXh0Pjx0ZXh0IGZpbGw9IiMwMDAwMDAiIGZvbnQtZmFtaWx5PSJzYW5zLXNlcmlmIiBmb250LXNpemU9IjEyIiBsZW5ndGhBZGp1c3Q9InNwYWNpbmciIHRleHRMZW5ndGg9IjE0OSIgeD0iMTAwMCIgeT0iMzAxLjM3NSI+K3JlbW92ZXIoaWQ6IGludCk6IHZvaWQ8L3RleHQ+PC9nPjwhLS1jbGFzcyBQZXJzaXN0ZW5jaWFEaXNjaXBsaW5hLS0+PGcgaWQ9ImVsZW1fUGVyc2lzdGVuY2lhRGlzY2lwbGluYSI+PHJlY3QgY29kZUxpbmU9IjExNiIgZmlsbD0iI0ZGRkZGRiIgZmlsdGVyPSJ1cmwoI2YxZXl2NG5ydWljN2pmKSIgaGVpZ2h0PSI5OS4zNzUiIGlkPSJQZXJzaXN0ZW5jaWFEaXNjaXBsaW5hIiByeD0iMi41IiByeT0iMi41IiBzdHlsZT0ic3Ryb2tlOiMwMDAwMDA7c3Ryb2tlLXdpZHRoOjEuMDsiIHdpZHRoPSIyNzAiIHg9IjEyNTIiIHk9IjIwNy41Ii8+PHJlY3QgZmlsbD0iI0QzRDNEMyIgaGVpZ2h0PSIzMiIgcng9IjIuNSIgcnk9IjIuNSIgc3R5bGU9InN0cm9rZTojRDNEM0QzO3N0cm9rZS13aWR0aDoxLjA7IiB3aWR0aD0iMjcwIiB4PSIxMjUyIiB5PSIyMDcuNSIvPjxyZWN0IGZpbGw9IiNEM0QzRDMiIGhlaWdodD0iMi41IiBzdHlsZT0ic3Ryb2tlOiNEM0QzRDM7c3Ryb2tlLXdpZHRoOjEuMDsiIHdpZHRoPSIyNzAiIHg9IjEyNTIiIHk9IjIzNyIvPjxyZWN0IGNvZGVMaW5lPSIxMTYiIGZpbGw9Im5vbmUiIGhlaWdodD0iOTkuMzc1IiBpZD0iUGVyc2lzdGVuY2lhRGlzY2lwbGluYSIgcng9IjIuNSIgcnk9IjIuNSIgc3R5bGU9InN0cm9rZTojMDAwMDAwO3N0cm9rZS13aWR0aDoxLjA7IiB3aWR0aD0iMjcwIiB4PSIxMjUyIiB5PSIyMDcuNSIvPjxlbGxpcHNlIGN4PSIxMzEwLjI1IiBjeT0iMjIzLjUiIGZpbGw9IiNBREQxQjIiIHJ4PSIxMSIgcnk9IjExIiBzdHlsZT0ic3Ryb2tlOiMxODE4MTg7c3Ryb2tlLXdpZHRoOjEuMDsiLz48cGF0aCBkPSJNMTMwNy44NzUsMjI3Ljc1IEwxMzA3Ljg3NSwyMjkuNSBMMTMxMi44MTI1LDIyOS41IEwxMzEyLjgxMjUsMjI3Ljc1IEwxMzA3Ljg3NSwyMjcuNzUgWiBNMTMwOC41NjI1LDIyOC40Mzc1IFExMzA4LjU2MjUsMjI4LjQzNzUgMTMwOC41NjI1LDIxOS4yNSBMMTMwNi44MTI1LDIxOS4yNSBRMTMwNi44MTI1LDIxOS4yNSAxMzA2LjgxMjUsMjI4LjQzNzUgTDEzMDguNTYyNSwyMjguNDM3NSBaIE0xMzEyLjEyNSwyMjguNDM3NSBMMTMxMy44NzUsMjI4LjQzNzUgUTEzMTMuODc1LDIyOC40Mzc1IDEzMTMuODc1LDIyNS42MjUgTDEzMTIuMTI1LDIyNS42MjUgUTEzMTIuMTI1LDIyNS42MjUgMTMxMi4xMjUsMjI4LjQzNzUgWiBNMTMxMi4xMjUsMjE5LjI1IFExMzEyLjEyNSwyMTkuMjUgMTMxMi4xMjUsMjIyLjA2MjUgTDEzMTMuODc1LDIyMi4wNjI1IFExMzEzLjg3NSwyMjIuMDYyNSAxMzEzLjg3NSwyMTkuMjUgTDEzMTIuMTI1LDIxOS4yNSBaIE0xMzA3Ljg3NSwyMTkuOTM3NSBMMTMxMi44MTI1LDIxOS45Mzc1IEwxMzEyLjgxMjUsMjE4LjE4NzUgTDEzMDcuODc1LDIxOC4xODc1IEwxMzA3Ljg3NSwyMTkuOTM3NSBaICIgZmlsbD0iIzAwMDAwMCIvPjx0ZXh0IGZpbGw9IiMwMDAwMDAiIGZvbnQtZmFtaWx5PSJzYW5zLXNlcmlmIiBmb250LXNpemU9IjEyIiBsZW5ndGhBZGp1c3Q9InNwYWNpbmciIHRleHRMZW5ndGg9IjE0NSIgeD0iMTMzMC43NSIgeT0iMjI4LjQyMTkiPlBlcnNpc3RlbmNpYURpc2NpcGxpbmE8L3RleHQ+PGxpbmUgc3R5bGU9InN0cm9rZTojMDAwMDAwO3N0cm9rZS13aWR0aDoxLjA7IiB4MT0iMTI1MyIgeDI9IjE1MjEiIHkxPSIyMzkuNSIgeTI9IjIzOS41Ii8+PGxpbmUgc3R5bGU9InN0cm9rZTojMDAwMDAwO3N0cm9rZS13aWR0aDoxLjA7IiB4MT0iMTI1MyIgeDI9IjE1MjEiIHkxPSIyNDcuNSIgeTI9IjI0Ny41Ii8+PHRleHQgZmlsbD0iIzAwMDAwMCIgZm9udC1mYW1pbHk9InNhbnMtc2VyaWYiIGZvbnQtc2l6ZT0iMTIiIGxlbmd0aEFkanVzdD0ic3BhY2luZyIgdGV4dExlbmd0aD0iMjQwIiB4PSIxMjU4IiB5PSIyNjIuODQzOCI+K3NhbHZhcihkaXNjaXBsaW5hOiBEaXNjaXBsaW5hKTogdm9pZDwvdGV4dD48dGV4dCBmaWxsPSIjMDAwMDAwIiBmb250LWZhbWlseT0ic2Fucy1zZXJpZiIgZm9udC1zaXplPSIxMiIgbGVuZ3RoQWRqdXN0PSJzcGFjaW5nIiB0ZXh0TGVuZ3RoPSIyNDIiIHg9IjEyNTgiIHk9IjI3NS42ODc1Ij4rY2FycmVnYXIoY29kaWdvOiBzdHJpbmcpOiBEaXNjaXBsaW5hPC90ZXh0Pjx0ZXh0IGZpbGw9IiMwMDAwMDAiIGZvbnQtZmFtaWx5PSJzYW5zLXNlcmlmIiBmb250LXNpemU9IjEyIiBsZW5ndGhBZGp1c3Q9InNwYWNpbmciIHRleHRMZW5ndGg9IjI1OCIgeD0iMTI1OCIgeT0iMjg4LjUzMTMiPithdHVhbGl6YXIoZGlzY2lwbGluYTogRGlzY2lwbGluYSk6IHZvaWQ8L3RleHQ+PHRleHQgZmlsbD0iIzAwMDAwMCIgZm9udC1mYW1pbHk9InNhbnMtc2VyaWYiIGZvbnQtc2l6ZT0iMTIiIGxlbmd0aEFkanVzdD0ic3BhY2luZyIgdGV4dExlbmd0aD0iMTk3IiB4PSIxMjU4IiB5PSIzMDEuMzc1Ij4rcmVtb3Zlcihjb2RpZ286IHN0cmluZyk6IHZvaWQ8L3RleHQ+PC9nPjwhLS1jbGFzcyBQZXJzaXN0ZW5jaWFNYXRyaWN1bGEtLT48ZyBpZD0iZWxlbV9QZXJzaXN0ZW5jaWFNYXRyaWN1bGEiPjxyZWN0IGNvZGVMaW5lPSIxMjMiIGZpbGw9IiNGRkZGRkYiIGZpbHRlcj0idXJsKCNmMWV5djRucnVpYzdqZikiIGhlaWdodD0iOTkuMzc1IiBpZD0iUGVyc2lzdGVuY2lhTWF0cmljdWxhIiByeD0iMi41IiByeT0iMi41IiBzdHlsZT0ic3Ryb2tlOiMwMDAwMDA7c3Ryb2tlLXdpZHRoOjEuMDsiIHdpZHRoPSIyNTciIHg9IjE1NzIuNSIgeT0iMjA3LjUiLz48cmVjdCBmaWxsPSIjRDNEM0QzIiBoZWlnaHQ9IjMyIiByeD0iMi41IiByeT0iMi41IiBzdHlsZT0ic3Ryb2tlOiNEM0QzRDM7c3Ryb2tlLXdpZHRoOjEuMDsiIHdpZHRoPSIyNTciIHg9IjE1NzIuNSIgeT0iMjA3LjUiLz48cmVjdCBmaWxsPSIjRDNEM0QzIiBoZWlnaHQ9IjIuNSIgc3R5bGU9InN0cm9rZTojRDNEM0QzO3N0cm9rZS13aWR0aDoxLjA7IiB3aWR0aD0iMjU3IiB4PSIxNTcyLjUiIHk9IjIzNyIvPjxyZWN0IGNvZGVMaW5lPSIxMjMiIGZpbGw9Im5vbmUiIGhlaWdodD0iOTkuMzc1IiBpZD0iUGVyc2lzdGVuY2lhTWF0cmljdWxhIiByeD0iMi41IiByeT0iMi41IiBzdHlsZT0ic3Ryb2tlOiMwMDAwMDA7c3Ryb2tlLXdpZHRoOjEuMDsiIHdpZHRoPSIyNTciIHg9IjE1NzIuNSIgeT0iMjA3LjUiLz48ZWxsaXBzZSBjeD0iMTYyNy4yNSIgY3k9IjIyMy41IiBmaWxsPSIjQUREMUIyIiByeD0iMTEiIHJ5PSIxMSIgc3R5bGU9InN0cm9rZTojMTgxODE4O3N0cm9rZS13aWR0aDoxLjA7Ii8+PHBhdGggZD0iTTE2MjQuODc1LDIyNy43NSBMMTYyNC44NzUsMjI5LjUgTDE2MjkuODEyNSwyMjkuNSBMMTYyOS44MTI1LDIyNy43NSBMMTYyNC44NzUsMjI3Ljc1IFogTTE2MjUuNTYyNSwyMjguNDM3NSBRMTYyNS41NjI1LDIyOC40Mzc1IDE2MjUuNTYyNSwyMTkuMjUgTDE2MjMuODEyNSwyMTkuMjUgUTE2MjMuODEyNSwyMTkuMjUgMTYyMy44MTI1LDIyOC40Mzc1IEwxNjI1LjU2MjUsMjI4LjQzNzUgWiBNMTYyOS4xMjUsMjI4LjQzNzUgTDE2MzAuODc1LDIyOC40Mzc1IFExNjMwLjg3NSwyMjguNDM3NSAxNjMwLjg3NSwyMjUuNjI1IEwxNjI5LjEyNSwyMjUuNjI1IFExNjI5LjEyNSwyMjUuNjI1IDE2MjkuMTI1LDIyOC40Mzc1IFogTTE2MjkuMTI1LDIxOS4yNSBRMTYyOS4xMjUsMjE5LjI1IDE2MjkuMTI1LDIyMi4wNjI1IEwxNjMwLjg3NSwyMjIuMDYyNSBRMTYzMC44NzUsMjIyLjA2MjUgMTYzMC44NzUsMjE5LjI1IEwxNjI5LjEyNSwyMTkuMjUgWiBNMTYyNC44NzUsMjE5LjkzNzUgTDE2MjkuODEyNSwyMTkuOTM3NSBMMTYyOS44MTI1LDIxOC4xODc1IEwxNjI0Ljg3NSwyMTguMTg3NSBMMTYyNC44NzUsMjE5LjkzNzUgWiAiIGZpbGw9IiMwMDAwMDAiLz48dGV4dCBmaWxsPSIjMDAwMDAwIiBmb250LWZhbWlseT0ic2Fucy1zZXJpZiIgZm9udC1zaXplPSIxMiIgbGVuZ3RoQWRqdXN0PSJzcGFjaW5nIiB0ZXh0TGVuZ3RoPSIxMzkiIHg9IjE2NDcuNzUiIHk9IjIyOC40MjE5Ij5QZXJzaXN0ZW5jaWFNYXRyaWN1bGE8L3RleHQ+PGxpbmUgc3R5bGU9InN0cm9rZTojMDAwMDAwO3N0cm9rZS13aWR0aDoxLjA7IiB4MT0iMTU3My41IiB4Mj0iMTgyOC41IiB5MT0iMjM5LjUiIHkyPSIyMzkuNSIvPjxsaW5lIHN0eWxlPSJzdHJva2U6IzAwMDAwMDtzdHJva2Utd2lkdGg6MS4wOyIgeDE9IjE1NzMuNSIgeDI9IjE4MjguNSIgeTE9IjI0Ny41IiB5Mj0iMjQ3LjUiLz48dGV4dCBmaWxsPSIjMDAwMDAwIiBmb250LWZhbWlseT0ic2Fucy1zZXJpZiIgZm9udC1zaXplPSIxMiIgbGVuZ3RoQWRqdXN0PSJzcGFjaW5nIiB0ZXh0TGVuZ3RoPSIyMjciIHg9IjE1NzguNSIgeT0iMjYyLjg0MzgiPitzYWx2YXIobWF0cmljdWxhOiBNYXRyaWN1bGEpOiB2b2lkPC90ZXh0Pjx0ZXh0IGZpbGw9IiMwMDAwMDAiIGZvbnQtZmFtaWx5PSJzYW5zLXNlcmlmIiBmb250LXNpemU9IjEyIiBsZW5ndGhBZGp1c3Q9InNwYWNpbmciIHRleHRMZW5ndGg9IjE4OCIgeD0iMTU3OC41IiB5PSIyNzUuNjg3NSI+K2NhcnJlZ2FyKGlkOiBpbnQpOiBNYXRyaWN1bGE8L3RleHQ+PHRleHQgZmlsbD0iIzAwMDAwMCIgZm9udC1mYW1pbHk9InNhbnMtc2VyaWYiIGZvbnQtc2l6ZT0iMTIiIGxlbmd0aEFkanVzdD0ic3BhY2luZyIgdGV4dExlbmd0aD0iMjQ1IiB4PSIxNTc4LjUiIHk9IjI4OC41MzEzIj4rYXR1YWxpemFyKG1hdHJpY3VsYTogTWF0cmljdWxhKTogdm9pZDwvdGV4dD48dGV4dCBmaWxsPSIjMDAwMDAwIiBmb250LWZhbWlseT0ic2Fucy1zZXJpZiIgZm9udC1zaXplPSIxMiIgbGVuZ3RoQWRqdXN0PSJzcGFjaW5nIiB0ZXh0TGVuZ3RoPSIxNDkiIHg9IjE1NzguNSIgeT0iMzAxLjM3NSI+K3JlbW92ZXIoaWQ6IGludCk6IHZvaWQ8L3RleHQ+PC9nPjwhLS1jbGFzcyBQZXJzaXN0ZW5jaWFVc3VhcmlvLS0+PGcgaWQ9ImVsZW1fUGVyc2lzdGVuY2lhVXN1YXJpbyI+PHJlY3QgY29kZUxpbmU9IjEzMCIgZmlsbD0iI0ZGRkZGRiIgZmlsdGVyPSJ1cmwoI2YxZXl2NG5ydWljN2pmKSIgaGVpZ2h0PSIxMTIuMjE4OCIgaWQ9IlBlcnNpc3RlbmNpYVVzdWFyaW8iIHJ4PSIyLjUiIHJ5PSIyLjUiIHN0eWxlPSJzdHJva2U6IzAwMDAwMDtzdHJva2Utd2lkdGg6MS4wOyIgd2lkdGg9IjMzNCIgeD0iMTg4MCIgeT0iMjAxIi8+PHJlY3QgZmlsbD0iI0QzRDNEMyIgaGVpZ2h0PSIzMiIgcng9IjIuNSIgcnk9IjIuNSIgc3R5bGU9InN0cm9rZTojRDNEM0QzO3N0cm9rZS13aWR0aDoxLjA7IiB3aWR0aD0iMzM0IiB4PSIxODgwIiB5PSIyMDEiLz48cmVjdCBmaWxsPSIjRDNEM0QzIiBoZWlnaHQ9IjIuNSIgc3R5bGU9InN0cm9rZTojRDNEM0QzO3N0cm9rZS13aWR0aDoxLjA7IiB3aWR0aD0iMzM0IiB4PSIxODgwIiB5PSIyMzAuNSIvPjxyZWN0IGNvZGVMaW5lPSIxMzAiIGZpbGw9Im5vbmUiIGhlaWdodD0iMTEyLjIxODgiIGlkPSJQZXJzaXN0ZW5jaWFVc3VhcmlvIiByeD0iMi41IiByeT0iMi41IiBzdHlsZT0ic3Ryb2tlOiMwMDAwMDA7c3Ryb2tlLXdpZHRoOjEuMDsiIHdpZHRoPSIzMzQiIHg9IjE4ODAiIHk9IjIwMSIvPjxlbGxpcHNlIGN4PSIxOTc4Ljc1IiBjeT0iMjE3IiBmaWxsPSIjQUREMUIyIiByeD0iMTEiIHJ5PSIxMSIgc3R5bGU9InN0cm9rZTojMTgxODE4O3N0cm9rZS13aWR0aDoxLjA7Ii8+PHBhdGggZD0iTTE5NzYuMzc1LDIyMS4yNSBMMTk3Ni4zNzUsMjIzIEwxOTgxLjMxMjUsMjIzIEwxOTgxLjMxMjUsMjIxLjI1IEwxOTc2LjM3NSwyMjEuMjUgWiBNMTk3Ny4wNjI1LDIyMS45Mzc1IFExOTc3LjA2MjUsMjIxLjkzNzUgMTk3Ny4wNjI1LDIxMi43NSBMMTk3NS4zMTI1LDIxMi43NSBRMTk3NS4zMTI1LDIxMi43NSAxOTc1LjMxMjUsMjIxLjkzNzUgTDE5NzcuMDYyNSwyMjEuOTM3NSBaIE0xOTgwLjYyNSwyMjEuOTM3NSBMMTk4Mi4zNzUsMjIxLjkzNzUgUTE5ODIuMzc1LDIyMS45Mzc1IDE5ODIuMzc1LDIxOS4xMjUgTDE5ODAuNjI1LDIxOS4xMjUgUTE5ODAuNjI1LDIxOS4xMjUgMTk4MC42MjUsMjIxLjkzNzUgWiBNMTk4MC42MjUsMjEyLjc1IFExOTgwLjYyNSwyMTIuNzUgMTk4MC42MjUsMjE1LjU2MjUgTDE5ODIuMzc1LDIxNS41NjI1IFExOTgyLjM3NSwyMTUuNTYyNSAxOTgyLjM3NSwyMTIuNzUgTDE5ODAuNjI1LDIxMi43NSBaIE0xOTc2LjM3NSwyMTMuNDM3NSBMMTk4MS4zMTI1LDIxMy40Mzc1IEwxOTgxLjMxMjUsMjExLjY4NzUgTDE5NzYuMzc1LDIxMS42ODc1IEwxOTc2LjM3NSwyMTMuNDM3NSBaICIgZmlsbD0iIzAwMDAwMCIvPjx0ZXh0IGZpbGw9IiMwMDAwMDAiIGZvbnQtZmFtaWx5PSJzYW5zLXNlcmlmIiBmb250LXNpemU9IjEyIiBsZW5ndGhBZGp1c3Q9InNwYWNpbmciIHRleHRMZW5ndGg9IjEyOCIgeD0iMTk5OS4yNSIgeT0iMjIxLjkyMTkiPlBlcnNpc3RlbmNpYVVzdWFyaW88L3RleHQ+PGxpbmUgc3R5bGU9InN0cm9rZTojMDAwMDAwO3N0cm9rZS13aWR0aDoxLjA7IiB4MT0iMTg4MSIgeDI9IjIyMTMiIHkxPSIyMzMiIHkyPSIyMzMiLz48bGluZSBzdHlsZT0ic3Ryb2tlOiMwMDAwMDA7c3Ryb2tlLXdpZHRoOjEuMDsiIHgxPSIxODgxIiB4Mj0iMjIxMyIgeTE9IjI0MSIgeTI9IjI0MSIvPjx0ZXh0IGZpbGw9IiMwMDAwMDAiIGZvbnQtZmFtaWx5PSJzYW5zLXNlcmlmIiBmb250LXNpemU9IjEyIiBsZW5ndGhBZGp1c3Q9InNwYWNpbmciIHRleHRMZW5ndGg9IjIwNiIgeD0iMTg4NiIgeT0iMjU2LjM0MzgiPitzYWx2YXIodXN1YXJpbzogVXN1YXJpbyk6IHZvaWQ8L3RleHQ+PHRleHQgZmlsbD0iIzAwMDAwMCIgZm9udC1mYW1pbHk9InNhbnMtc2VyaWYiIGZvbnQtc2l6ZT0iMTIiIGxlbmd0aEFkanVzdD0ic3BhY2luZyIgdGV4dExlbmd0aD0iMzExIiB4PSIxODg2IiB5PSIyNjkuMTg3NSI+K2NhcnJlZ2FyKG5vbWU6IFN0cmluZywgc2VuaGE6IFN0cmluZyk6IFVzdWFyaW88L3RleHQ+PHRleHQgZmlsbD0iIzAwMDAwMCIgZm9udC1mYW1pbHk9InNhbnMtc2VyaWYiIGZvbnQtc2l6ZT0iMTIiIGxlbmd0aEFkanVzdD0ic3BhY2luZyIgdGV4dExlbmd0aD0iMjI0IiB4PSIxODg2IiB5PSIyODIuMDMxMyI+K2F0dWFsaXphcih1c3VhcmlvOiBVc3VhcmlvKTogdm9pZDwvdGV4dD48dGV4dCBmaWxsPSIjMDAwMDAwIiBmb250LWZhbWlseT0ic2Fucy1zZXJpZiIgZm9udC1zaXplPSIxMiIgbGVuZ3RoQWRqdXN0PSJzcGFjaW5nIiB0ZXh0TGVuZ3RoPSIxNDkiIHg9IjE4ODYiIHk9IjI5NC44NzUiPityZW1vdmVyKGlkOiBpbnQpOiB2b2lkPC90ZXh0Pjx0ZXh0IGZpbGw9IiMwMDAwMDAiIGZvbnQtZmFtaWx5PSJzYW5zLXNlcmlmIiBmb250LXNpemU9IjEyIiBsZW5ndGhBZGp1c3Q9InNwYWNpbmciIHRleHRMZW5ndGg9IjMyMiIgeD0iMTg4NiIgeT0iMzA3LjcxODgiPithdXRlbnRpY2FyKG5vbWU6IFN0cmluZywgc2VuaGE6IFN0cmluZyk6IFVzdWFyaW88L3RleHQ+PC9nPjwhLS1yZXZlcnNlIGxpbmsgVXN1YXJpbyB0byBBbHVuby0tPjxnIGlkPSJsaW5rX1VzdWFyaW9fQWx1bm8iPjxwYXRoIGQ9Ik00MjAuNywxMzkgQzQ3OS40NiwxMzkgNTE1LDEzOSA1MTUsMTM5IEM1MTUsMTM5IDUxNSwyOTcuMTMgNTE1LDM4OC4yNCAiIGZpbGw9Im5vbmUiIGlkPSJVc3VhcmlvLWJhY2t0by1BbHVubyIgc3R5bGU9InN0cm9rZTojMDAwMDAwO3N0cm9rZS13aWR0aDoxLjA7Ii8+PHBvbHlnb24gZmlsbD0ibm9uZSIgcG9pbnRzPSI0MDIuNywxMzksNDIwLjcsMTQ1LDQyMC43LDEzMyw0MDIuNywxMzkiIHN0eWxlPSJzdHJva2U6IzAwMDAwMDtzdHJva2Utd2lkdGg6MS4wOyIvPjwvZz48IS0tcmV2ZXJzZSBsaW5rIFVzdWFyaW8gdG8gUHJvZmVzc29yLS0+PGcgaWQ9ImxpbmtfVXN1YXJpb19Qcm9mZXNzb3IiPjxwYXRoIGQ9Ik04My4yNSw5NSBDNTIuOTgsOTUgNDguMjUsOTUgNDguMjUsOTUgQzQ4LjI1LDk1IDQ4LjI1LDQ4My44NCA0OC4yNSw2MDcuNjMgIiBmaWxsPSJub25lIiBpZD0iVXN1YXJpby1iYWNrdG8tUHJvZmVzc29yIiBzdHlsZT0ic3Ryb2tlOiMwMDAwMDA7c3Ryb2tlLXdpZHRoOjEuMDsiLz48cG9seWdvbiBmaWxsPSJub25lIiBwb2ludHM9IjEwMS4yNSw5NSw4My4yNSw4OSw4My4yNSwxMDEsMTAxLjI1LDk1IiBzdHlsZT0ic3Ryb2tlOiMwMDAwMDA7c3Ryb2tlLXdpZHRoOjEuMDsiLz48L2c+PCEtLXJldmVyc2UgbGluayBVc3VhcmlvIHRvIEFkbWluaXN0cmFkb3ItLT48ZyBpZD0ibGlua19Vc3VhcmlvX0FkbWluaXN0cmFkb3IiPjxwYXRoIGQ9Ik0yNTIsMTY5LjIxIEMyNTIsMTg5LjU4IDI1MiwxOTQuMjggMjUyLDIxMy40MSAiIGZpbGw9Im5vbmUiIGlkPSJVc3VhcmlvLWJhY2t0by1BZG1pbmlzdHJhZG9yIiBzdHlsZT0ic3Ryb2tlOiMwMDAwMDA7c3Ryb2tlLXdpZHRoOjEuMDsiLz48cG9seWdvbiBmaWxsPSJub25lIiBwb2ludHM9IjI1MiwxNTEuMjEsMjQ2LDE2OS4yMSwyNTgsMTY5LjIxLDI1MiwxNTEuMjEiIHN0eWxlPSJzdHJva2U6IzAwMDAwMDtzdHJva2Utd2lkdGg6MS4wOyIvPjwvZz48IS0tcmV2ZXJzZSBsaW5rIFBlcnNpc3RlbmNpYSB0byBQZXJzaXN0ZW5jaWFBbHVuby0tPjxnIGlkPSJsaW5rX1BlcnNpc3RlbmNpYV9QZXJzaXN0ZW5jaWFBbHVubyI+PHBhdGggZD0iTTE0MzIuNzgsOTUgQzEzMDIuMDMsOTUgMTA5OCw5NSAxMDk4LDk1IEMxMDk4LDk1IDEwOTgsMTU5LjQ3IDEwOTgsMjA3LjA3ICIgZmlsbD0ibm9uZSIgaWQ9IlBlcnNpc3RlbmNpYS1iYWNrdG8tUGVyc2lzdGVuY2lhQWx1bm8iIHN0eWxlPSJzdHJva2U6IzAwMDAwMDtzdHJva2Utd2lkdGg6MS4wO3N0cm9rZS1kYXNoYXJyYXk6Ny4wLDcuMDsiLz48cG9seWdvbiBmaWxsPSJub25lIiBwb2ludHM9IjE0NTAuNzgsOTUsMTQzMi43OCw4OSwxNDMyLjc4LDEwMSwxNDUwLjc4LDk1IiBzdHlsZT0ic3Ryb2tlOiMwMDAwMDA7c3Ryb2tlLXdpZHRoOjEuMDsiLz48L2c+PCEtLXJldmVyc2UgbGluayBQZXJzaXN0ZW5jaWEgdG8gUGVyc2lzdGVuY2lhRGlzY2lwbGluYS0tPjxnIGlkPSJsaW5rX1BlcnNpc3RlbmNpYV9QZXJzaXN0ZW5jaWFEaXNjaXBsaW5hIj48cGF0aCBkPSJNMTQ4Ni41LDE2Mi45MyBDMTQ4Ni41LDE4Mi43MyAxNDg2LjUsMTg3LjQ1IDE0ODYuNSwyMDcuMjQgIiBmaWxsPSJub25lIiBpZD0iUGVyc2lzdGVuY2lhLWJhY2t0by1QZXJzaXN0ZW5jaWFEaXNjaXBsaW5hIiBzdHlsZT0ic3Ryb2tlOiMwMDAwMDA7c3Ryb2tlLXdpZHRoOjEuMDtzdHJva2UtZGFzaGFycmF5OjcuMCw3LjA7Ii8+PHBvbHlnb24gZmlsbD0ibm9uZSIgcG9pbnRzPSIxNDg2LjUsMTQ0LjkzLDE0ODAuNSwxNjIuOTMsMTQ5Mi41LDE2Mi45MywxNDg2LjUsMTQ0LjkzIiBzdHlsZT0ic3Ryb2tlOiMwMDAwMDA7c3Ryb2tlLXdpZHRoOjEuMDsiLz48L2c+PCEtLXJldmVyc2UgbGluayBQZXJzaXN0ZW5jaWEgdG8gUGVyc2lzdGVuY2lhTWF0cmljdWxhLS0+PGcgaWQ9ImxpbmtfUGVyc2lzdGVuY2lhX1BlcnNpc3RlbmNpYU1hdHJpY3VsYSI+PHBhdGggZD0iTTE2MDQuNzUsMTYyLjkzIEMxNjA0Ljc1LDE4Mi43MyAxNjA0Ljc1LDE4Ny40NSAxNjA0Ljc1LDIwNy4yNCAiIGZpbGw9Im5vbmUiIGlkPSJQZXJzaXN0ZW5jaWEtYmFja3RvLVBlcnNpc3RlbmNpYU1hdHJpY3VsYSIgc3R5bGU9InN0cm9rZTojMDAwMDAwO3N0cm9rZS13aWR0aDoxLjA7c3Ryb2tlLWRhc2hhcnJheTo3LjAsNy4wOyIvPjxwb2x5Z29uIGZpbGw9Im5vbmUiIHBvaW50cz0iMTYwNC43NSwxNDQuOTMsMTU5OC43NSwxNjIuOTMsMTYxMC43NSwxNjIuOTMsMTYwNC43NSwxNDQuOTMiIHN0eWxlPSJzdHJva2U6IzAwMDAwMDtzdHJva2Utd2lkdGg6MS4wOyIvPjwvZz48IS0tcmV2ZXJzZSBsaW5rIFBlcnNpc3RlbmNpYSB0byBQZXJzaXN0ZW5jaWFVc3VhcmlvLS0+PGcgaWQ9ImxpbmtfUGVyc2lzdGVuY2lhX1BlcnNpc3RlbmNpYVVzdWFyaW8iPjxwYXRoIGQ9Ik0xNjU1LjE0LDk1IEMxODAwLjU0LDk1IDIwNDcsOTUgMjA0Nyw5NSBDMjA0Nyw5NSAyMDQ3LDE1NC4wMSAyMDQ3LDIwMC43OSAiIGZpbGw9Im5vbmUiIGlkPSJQZXJzaXN0ZW5jaWEtYmFja3RvLVBlcnNpc3RlbmNpYVVzdWFyaW8iIHN0eWxlPSJzdHJva2U6IzAwMDAwMDtzdHJva2Utd2lkdGg6MS4wO3N0cm9rZS1kYXNoYXJyYXk6Ny4wLDcuMDsiLz48cG9seWdvbiBmaWxsPSJub25lIiBwb2ludHM9IjE2MzcuMTQsOTUsMTY1NS4xNCwxMDEsMTY1NS4xNCw4OSwxNjM3LjE0LDk1IiBzdHlsZT0ic3Ryb2tlOiMwMDAwMDA7c3Ryb2tlLXdpZHRoOjEuMDsiLz48L2c+PCEtLWxpbmsgQWx1bm8gdG8gTWF0cmljdWxhLS0+PGcgaWQ9ImxpbmtfQWx1bm9fTWF0cmljdWxhIj48cGF0aCBjb2RlTGluZT0iMTQwIiBkPSJNODM5LjMzLDUxMy43MiBDODM5LjMzLDU0MC4xOCA4MzkuMzMsNTY0LjU0IDgzOS4zMyw1ODkuNCAiIGZpbGw9Im5vbmUiIGlkPSJBbHVuby10by1NYXRyaWN1bGEiIHN0eWxlPSJzdHJva2U6IzAwMDAwMDtzdHJva2Utd2lkdGg6MS4wOyIvPjxwb2x5Z29uIGZpbGw9IiMwMDAwMDAiIHBvaW50cz0iODM5LjMzLDU5NS40LDg0My4zMyw1ODYuNCw4MzkuMzMsNTkwLjQsODM1LjMzLDU4Ni40LDgzOS4zMyw1OTUuNCIgc3R5bGU9InN0cm9rZTojMDAwMDAwO3N0cm9rZS13aWR0aDoxLjA7Ii8+PHRleHQgZmlsbD0iIzAwMDAwMCIgZm9udC1mYW1pbHk9InNhbnMtc2VyaWYiIGZvbnQtc2l6ZT0iMTMiIGxlbmd0aEFkanVzdD0ic3BhY2luZyIgdGV4dExlbmd0aD0iNyIgeD0iODUzLjQ2OTciIHk9IjUzNC4wNjE5Ij4xPC90ZXh0Pjx0ZXh0IGZpbGw9IiMwMDAwMDAiIGZvbnQtZmFtaWx5PSJzYW5zLXNlcmlmIiBmb250LXNpemU9IjEzIiBsZW5ndGhBZGp1c3Q9InNwYWNpbmciIHRleHRMZW5ndGg9IjYiIHg9IjgzOC4xNjM4IiB5PSI1ODUuNzkxMSI+KjwvdGV4dD48L2c+PCEtLWxpbmsgVHVybWEgdG8gTWF0cmljdWxhLS0+PGcgaWQ9ImxpbmtfVHVybWFfTWF0cmljdWxhIj48cGF0aCBjb2RlTGluZT0iMTQxIiBkPSJNMzE3LjU5LDUyMiBDNDg2Ljc4LDUyMiA3NzIuNjcsNTIyIDc3Mi42Nyw1MjIgQzc3Mi42Nyw1MjIgNzcyLjY3LDU1NS4xOSA3NzIuNjcsNTg5LjMzICIgZmlsbD0ibm9uZSIgaWQ9IlR1cm1hLXRvLU1hdHJpY3VsYSIgc3R5bGU9InN0cm9rZTojMDAwMDAwO3N0cm9rZS13aWR0aDoxLjA7Ii8+PHBvbHlnb24gZmlsbD0iIzAwMDAwMCIgcG9pbnRzPSI3NzIuNjcsNTk1LjMzLDc3Ni42Nyw1ODYuMzMsNzcyLjY3LDU5MC4zMyw3NjguNjcsNTg2LjMzLDc3Mi42Nyw1OTUuMzMiIHN0eWxlPSJzdHJva2U6IzAwMDAwMDtzdHJva2Utd2lkdGg6MS4wOyIvPjx0ZXh0IGZpbGw9IiMwMDAwMDAiIGZvbnQtZmFtaWx5PSJzYW5zLXNlcmlmIiBmb250LXNpemU9IjEzIiBsZW5ndGhBZGp1c3Q9InNwYWNpbmciIHRleHRMZW5ndGg9IjQwIiB4PSI1NDAuNzkiIHk9IjUzNS4yODkxIj5Db250JiMyMzM7bTwvdGV4dD48dGV4dCBmaWxsPSIjMDAwMDAwIiBmb250LWZhbWlseT0ic2Fucy1zZXJpZiIgZm9udC1zaXplPSIxMyIgbGVuZ3RoQWRqdXN0PSJzcGFjaW5nIiB0ZXh0TGVuZ3RoPSI3IiB4PSIzMjUuNjAzNiIgeT0iNTI1LjQzNjQiPjE8L3RleHQ+PHRleHQgZmlsbD0iIzAwMDAwMCIgZm9udC1mYW1pbHk9InNhbnMtc2VyaWYiIGZvbnQtc2l6ZT0iMTMiIGxlbmd0aEFkanVzdD0ic3BhY2luZyIgdGV4dExlbmd0aD0iNiIgeD0iNzYwLjg3OTkiIHk9IjU4NS43MDk5Ij4qPC90ZXh0PjwvZz48IS0tcmV2ZXJzZSBsaW5rIFR1cm1hIHRvIERpc2NpcGxpbmEtLT48ZyBpZD0ibGlua19UdXJtYV9EaXNjaXBsaW5hIj48cGF0aCBjb2RlTGluZT0iMTQyIiBkPSJNMzIzLjYsNTMxIEM0MzYuNzUsNTMxIDU4Miw1MzEgNTgyLDUzMSBDNTgyLDUzMSA1ODIsNTU5Ljk1IDU4Miw1ODguNjcgIiBmaWxsPSJub25lIiBpZD0iVHVybWEtYmFja3RvLURpc2NpcGxpbmEiIHN0eWxlPSJzdHJva2U6IzAwMDAwMDtzdHJva2Utd2lkdGg6MS4wOyIvPjxwb2x5Z29uIGZpbGw9IiMwMDAwMDAiIHBvaW50cz0iMzE3LjYsNTMxLDMyNi42LDUzNSwzMjIuNiw1MzEsMzI2LjYsNTI3LDMxNy42LDUzMSIgc3R5bGU9InN0cm9rZTojMDAwMDAwO3N0cm9rZS13aWR0aDoxLjA7Ii8+PHRleHQgZmlsbD0iIzAwMDAwMCIgZm9udC1mYW1pbHk9InNhbnMtc2VyaWYiIGZvbnQtc2l6ZT0iMTMiIGxlbmd0aEFkanVzdD0ic3BhY2luZyIgdGV4dExlbmd0aD0iNDgiIHg9IjQyOS42NCIgeT0iNTI5LjI4OTEiPk9mZXJlY2U8L3RleHQ+PHRleHQgZmlsbD0iIzAwMDAwMCIgZm9udC1mYW1pbHk9InNhbnMtc2VyaWYiIGZvbnQtc2l6ZT0iMTMiIGxlbmd0aEFkanVzdD0ic3BhY2luZyIgdGV4dExlbmd0aD0iNiIgeD0iMzI1LjU4MjIiIHk9IjUzNS4wMTI5Ij4qPC90ZXh0Pjx0ZXh0IGZpbGw9IiMwMDAwMDAiIGZvbnQtZmFtaWx5PSJzYW5zLXNlcmlmIiBmb250LXNpemU9IjEzIiBsZW5ndGhBZGp1c3Q9InNwYWNpbmciIHRleHRMZW5ndGg9IjciIHg9IjU3NC41Mjk3IiB5PSI1NzkuNTYzIj4xPC90ZXh0PjwvZz48IS0tbGluayBUdXJtYSB0byBQcm9mZXNzb3ItLT48ZyBpZD0ibGlua19UdXJtYV9Qcm9mZXNzb3IiPjxwYXRoIGNvZGVMaW5lPSIxNDMiIGQ9Ik0xOTYsNTM5LjIgQzE5Niw1NjMuNDIgMTk2LDU4Mi4zOCAxOTYsNjAxLjk3ICIgZmlsbD0ibm9uZSIgaWQ9IlR1cm1hLXRvLVByb2Zlc3NvciIgc3R5bGU9InN0cm9rZTojMDAwMDAwO3N0cm9rZS13aWR0aDoxLjA7Ii8+PHBvbHlnb24gZmlsbD0iIzAwMDAwMCIgcG9pbnRzPSIxOTYsNjA3Ljk3LDIwMCw1OTguOTcsMTk2LDYwMi45NywxOTIsNTk4Ljk3LDE5Niw2MDcuOTciIHN0eWxlPSJzdHJva2U6IzAwMDAwMDtzdHJva2Utd2lkdGg6MS4wOyIvPjx0ZXh0IGZpbGw9IiMwMDAwMDAiIGZvbnQtZmFtaWx5PSJzYW5zLXNlcmlmIiBmb250LXNpemU9IjEzIiBsZW5ndGhBZGp1c3Q9InNwYWNpbmciIHRleHRMZW5ndGg9Ijc1IiB4PSIxMjAiIHk9IjU3MS44NzkxIj5SZWxhY2lvbmFkbzwvdGV4dD48dGV4dCBmaWxsPSIjMDAwMDAwIiBmb250LWZhbWlseT0ic2Fucy1zZXJpZiIgZm9udC1zaXplPSIxMyIgbGVuZ3RoQWRqdXN0PSJzcGFjaW5nIiB0ZXh0TGVuZ3RoPSI3IiB4PSIxODguNjk5MiIgeT0iNTU5LjY0NzgiPjE8L3RleHQ+PHRleHQgZmlsbD0iIzAwMDAwMCIgZm9udC1mYW1pbHk9InNhbnMtc2VyaWYiIGZvbnQtc2l6ZT0iMTMiIGxlbmd0aEFkanVzdD0ic3BhY2luZyIgdGV4dExlbmd0aD0iNyIgeD0iMTc5LjIwMzEiIHk9IjU5OC40MDc1Ij4xPC90ZXh0PjwvZz48IS0tbGluayBBZG1pbmlzdHJhZG9yIHRvIFR1cm1hLS0+PGcgaWQ9ImxpbmtfQWRtaW5pc3RyYWRvcl9UdXJtYSI+PHBhdGggY29kZUxpbmU9IjE0NCIgZD0iTTE5NiwzMDAuNTQgQzE5NiwzMTguOTcgMTk2LDMzNS4xNSAxOTYsMzU2Ljc0ICIgZmlsbD0ibm9uZSIgaWQ9IkFkbWluaXN0cmFkb3ItdG8tVHVybWEiIHN0eWxlPSJzdHJva2U6IzAwMDAwMDtzdHJva2Utd2lkdGg6MS4wOyIvPjxwb2x5Z29uIGZpbGw9IiMwMDAwMDAiIHBvaW50cz0iMTk2LDM2Mi43NCwyMDAsMzUzLjc0LDE5NiwzNTcuNzQsMTkyLDM1My43NCwxOTYsMzYyLjc0IiBzdHlsZT0ic3Ryb2tlOiMwMDAwMDA7c3Ryb2tlLXdpZHRoOjEuMDsiLz48L2c+PCEtLWxpbmsgTWF0cmljdWxhIHRvIFNpc3RlbWFDb2JyYW5jYS0tPjxnIGlkPSJsaW5rX01hdHJpY3VsYV9TaXN0ZW1hQ29icmFuY2EiPjxwYXRoIGNvZGVMaW5lPSIxNDUiIGQ9Ik04MDYsNjk0LjYxIEM4MDYsNzEzLjAxIDgwNiw3MjcuNTQgODA2LDc0NC42NSAiIGZpbGw9Im5vbmUiIGlkPSJNYXRyaWN1bGEtdG8tU2lzdGVtYUNvYnJhbmNhIiBzdHlsZT0ic3Ryb2tlOiMwMDAwMDA7c3Ryb2tlLXdpZHRoOjEuMDsiLz48cG9seWdvbiBmaWxsPSIjMDAwMDAwIiBwb2ludHM9IjgwNiw3NTAuNjUsODEwLDc0MS42NSw4MDYsNzQ1LjY1LDgwMiw3NDEuNjUsODA2LDc1MC42NSIgc3R5bGU9InN0cm9rZTojMDAwMDAwO3N0cm9rZS13aWR0aDoxLjA7Ii8+PHRleHQgZmlsbD0iIzAwMDAwMCIgZm9udC1mYW1pbHk9InNhbnMtc2VyaWYiIGZvbnQtc2l6ZT0iMTMiIGxlbmd0aEFkanVzdD0ic3BhY2luZyIgdGV4dExlbmd0aD0iNTYiIHg9Ijc0OSIgeT0iNzIwLjkxOTEiPlByb2Nlc3NhPC90ZXh0PjwvZz48IS0tU1JDPVtkTFZSWmppczQ3dHRMbjN4djRzeEdCVEROdUk1V1Nya3FtUDhjYU5OR1B2ZlNiUGNMazg4OUVMU1lkbkdsZ0Nfclg1cjhJTkhNWVQtYUV0WGNVNlNrUDZvWnFmTnRGMklZTzlSVS1zU0tSbFFtSWsxLWJ2ejBWUkJvZXVYQnI0eGx0QnZGQkxxV21LUXpnQld1WjVRamRpa3lRRklFTkVjWGNZWEsxaFN2bWVPNmhWN2dTNE5QMkt0TTZsUGNkc19MbXZjODNHSUo3aFYyQjNUQV82ZW1MZnNFR055MVBtMHF5clVndHBsX1pKeVNuZVVvMlF6Nlk4UHVsTmg4WVBEVzFrMzduVU1xZ3B5S2padWp6SElzZ1g2MkhPZ3pka1NUeUZyT29UU0xPSmRFUjB0MTJtaS10VjV3RUZQaTdVc3ZhUFg5c2ktRm9jUENRTFQ0NldpOE1FTVVFaXlJMnRlRlAtQjNITzRfZVVVR0xQV2hsSXdETkZseUotcEpodHpVdnhyWmRZYmh3bDhtLWtZcmlaV2FtQ2phX3dNZDZvOGNpMFB2VC13Z3BVek85QzBjSl9BTXNNNWdnWUEtTGVFRnBDTW5FSkUzaDQ4c2U5aDBRR3hNM3ZQNFJNajJ5VERtNVp3TVE1TTFyMXN4TDF3R1JfTUNHWUlwVmJTNTBLUjFFcDBfOHJFRklaMTFTVHIyVGZJaGlpLUN3SF9HMk0zcFdTLWk5MXUwZXpIQ2t1Q0ZiM1hLWDRrOTRHa3lLZDRuY1ZPSGJ4UHVzdnZTcnZYYW9XTE1JZkQwNENzNVpxeVdGNDFDelRFN1BnbWtUZ0tWRXNWbFNfUnZpemM1WnhUblJocGtqTjljNFRKTEpsa1FkaXF6ZUZvRlVxMF9PdWRROHplVWRIQ2Z6VXh6enlYTlc1SHpOZEJHV2daU0YxeUw5UUpfZF9RVjFkYlJmd1pSYm9LR0JwV01jRlZ6T2J5VDR4aUxBNGEzVXByaEE2dUw0QVh4aUFfdmlxcFFzVjQzNmtXSEI5eTBiOE9ISmRuSmpyb252amo4blQ3bUdfcXVtbWFBWVNrVEFib2Q4X0F6NW1MMWdIb0U0czJLbk1Qc0Q5cGFlMkhUcUNKQkd4cUUxT0ozYnFqSGlyQ3lIWWk0YTRLbEEwT21MUUxDRC1fZy1pUnREN3Y4cVBVNkNYelF2Zi1TTEp5aXJSZkhzd0ZsZ0RKUkhrd0RBN01FR0F3QllUbllqbnVrcENndm11ZnVLNU1LTTdKNzlYUGNIUHlQNlZlYmIxNUR3dDdDWFgtSUpnNS1YQUJOY2F2cmVwdFFxeERROHpuVmtQekVuZnRkUjZsdVJJX1JSZ25DcVZmMV9GMDFSMHhDQlA5YVhRQU5zcXRlcDcyWW1DdFF6bnowRFZLTVk4ZFhoOThhQVFZdFg5Q0VDOWlleTlvaklVeVBBSmhvaDZEekEyQlZNc2wwUWdpMlhlYXNlcU5rc2NKODNEZi1tSy01QUJwTUt5NEdlazZPYXdqZFFTOUhNTHJaNUxxUjJRZTdKcVpadjBTWnc3cE0yYjUtNEpwRlZNUHpRU1o0OFJMaUcyNGNybzJWbmNjcWUweDlTSzNFQ053OUFDX2FreC01ZEFDUWhVVThiZ3RJeUNULUpaOXF3X080emZGUmg1MGtKTDVScUpRREtWdVR6dHBBTG9oamhGRkJpX09uU002ZEpxeFlwQktOZE1JUW9uWkRfSEF6RC10aWFWSHdqTjVYS1Q3cEtMSnZXNlFZX0JLNjdzN3dvb3ppajNpemJTQllRbG5IUjkxandUWXNCb0hKR3l4VnhTSVA4X18zbTAwXS0tPjwvZz48L3N2Zz4=;" parent="1" vertex="1">
            <mxGeometry x="-500" y="162" width="2239" height="850" as="geometry" />
          </mxCell>
        </UserObject>
      </root>
    </mxGraphModel>
  </diagram>
</mxfile>
